<svg id="_404-2" data-name="404" xmlns="http://www.w3.org/2000/svg" xmlns:xlink="http://www.w3.org/1999/xlink" width="528.847" height="392.873" viewBox="0 0 528.847 392.873">
  <defs>
    <filter id="_404" x="21.677" y="44.239" width="495" height="337" filterUnits="userSpaceOnUse">
      <feOffset dx="6" input="SourceAlpha"/>
      <feGaussianBlur result="blur"/>
      <feFlood flood-opacity="0.161"/>
      <feComposite operator="in" in2="blur"/>
      <feComposite in="SourceGraphic"/>
    </filter>
  </defs>
  <g id="bg" transform="translate(-661.323 -193.761)" opacity="0.3">
    <path id="gear" d="M-11012.721,202.638a8.43,8.43,0,0,1-7.293-4.2,8.783,8.783,0,0,0-7.486-4.146,8.788,8.788,0,0,0-7.488,4.146,8.427,8.427,0,0,1-7.291,4.2,9.41,9.41,0,0,1-7.543-3.859,8.5,8.5,0,0,1-1.012-7.888l.131-.378a8.727,8.727,0,0,0-1.171-7.986,8.829,8.829,0,0,0-7.155-3.7,9.169,9.169,0,0,0-1,.055l-.826.089a10.426,10.426,0,0,1-1.138.064,8.352,8.352,0,0,1-5.812-2.225,9.215,9.215,0,0,1-2.731-5.145,8.971,8.971,0,0,1,.846-5.7,8.677,8.677,0,0,1,4.886-4.087l.992-.356a8.8,8.8,0,0,0,5.629-6.338,8.8,8.8,0,0,0-2.3-8.162l-.6-.614a8.805,8.805,0,0,1-2.506-4.722,8.509,8.509,0,0,1,.574-4.732,9.074,9.074,0,0,1,8.159-5.66,8.9,8.9,0,0,1,4.79,1.459l.309.192a8.789,8.789,0,0,0,4.692,1.372,8.844,8.844,0,0,0,8.793-7.834l0-.014a8.619,8.619,0,0,1,3.079-5.867,9.045,9.045,0,0,1,5.7-1.956,9.05,9.05,0,0,1,5.7,1.956,8.622,8.622,0,0,1,3.081,5.867v.014a8.848,8.848,0,0,0,8.8,7.834,8.789,8.789,0,0,0,4.692-1.372l.309-.192a8.9,8.9,0,0,1,4.79-1.459,9.074,9.074,0,0,1,8.159,5.66,8.506,8.506,0,0,1,.574,4.732,8.8,8.8,0,0,1-2.506,4.722l-.6.614a8.8,8.8,0,0,0-2.3,8.162,8.8,8.8,0,0,0,5.629,6.338l.989.356a8.676,8.676,0,0,1,4.885,4.086,8.969,8.969,0,0,1,.846,5.7,9.2,9.2,0,0,1-2.73,5.145,8.345,8.345,0,0,1-5.809,2.226,10.423,10.423,0,0,1-1.138-.064l-.826-.089a9.169,9.169,0,0,0-1-.055,8.827,8.827,0,0,0-7.155,3.7,8.729,8.729,0,0,0-1.171,7.987l.131.378a8.495,8.495,0,0,1-1.012,7.887A9.41,9.41,0,0,1-11012.721,202.638Zm-14.78-56.429a15.7,15.7,0,0,0-15.626,15.745A15.7,15.7,0,0,0-11027.5,177.7a15.7,15.7,0,0,0,15.629-15.745A15.7,15.7,0,0,0-11027.5,146.209Z" transform="translate(11732 131)" fill="#dfdfdf"/>
    <path id="gear-2" data-name="gear" d="M-11031.593,174.616a5.662,5.662,0,0,1-4.89-2.809,5.9,5.9,0,0,0-5.018-2.768,5.9,5.9,0,0,0-5.018,2.768,5.666,5.666,0,0,1-4.89,2.809,6.321,6.321,0,0,1-5.071-2.6,5.709,5.709,0,0,1-.671-5.306l.033-.094a5.856,5.856,0,0,0-.776-5.371,5.928,5.928,0,0,0-4.81-2.494,6.147,6.147,0,0,0-.67.037l-.208.022a7.01,7.01,0,0,1-.758.042,5.61,5.61,0,0,1-3.907-1.5,6.2,6.2,0,0,1-1.833-3.462,6.031,6.031,0,0,1,.573-3.833,5.827,5.827,0,0,1,3.29-2.739l.25-.089a5.908,5.908,0,0,0,3.8-4.267,5.907,5.907,0,0,0-1.564-5.492l-.15-.156a5.915,5.915,0,0,1-1.7-3.17,5.719,5.719,0,0,1,.379-3.184,6.092,6.092,0,0,1,5.484-3.814,5.987,5.987,0,0,1,3.2.969l.075.047a5.911,5.911,0,0,0,3.135.91,5.944,5.944,0,0,0,5.908-5.256,5.794,5.794,0,0,1,2.071-3.94,6.076,6.076,0,0,1,3.824-1.313,6.076,6.076,0,0,1,3.824,1.313,5.8,5.8,0,0,1,2.071,3.938,5.945,5.945,0,0,0,5.908,5.259,5.908,5.908,0,0,0,3.134-.91l.078-.047a5.981,5.981,0,0,1,3.2-.969,6.092,6.092,0,0,1,5.483,3.814,5.719,5.719,0,0,1,.379,3.184,5.911,5.911,0,0,1-1.7,3.17l-.15.156a5.907,5.907,0,0,0-1.564,5.492,5.907,5.907,0,0,0,3.8,4.267l.25.089a5.827,5.827,0,0,1,3.29,2.739,6.026,6.026,0,0,1,.573,3.832,6.186,6.186,0,0,1-1.832,3.463,5.611,5.611,0,0,1-3.907,1.5,6.992,6.992,0,0,1-.758-.042l-.209-.022a6.147,6.147,0,0,0-.67-.037,5.924,5.924,0,0,0-4.807,2.492,5.86,5.86,0,0,0-.778,5.373l.033.094a5.707,5.707,0,0,1-.671,5.305A6.319,6.319,0,0,1-11031.593,174.616ZM-11041.5,137a10.512,10.512,0,0,0-10.5,10.5,10.513,10.513,0,0,0,10.5,10.5,10.512,10.512,0,0,0,10.5-10.5A10.511,10.511,0,0,0-11041.5,137Z" transform="translate(11760 244)" fill="#dfdfdf"/>
    <path id="gear-3" data-name="gear" d="M-11031.593,174.616a5.662,5.662,0,0,1-4.89-2.809,5.9,5.9,0,0,0-5.018-2.768,5.9,5.9,0,0,0-5.018,2.768,5.666,5.666,0,0,1-4.89,2.809,6.321,6.321,0,0,1-5.071-2.6,5.709,5.709,0,0,1-.671-5.306l.033-.094a5.856,5.856,0,0,0-.776-5.371,5.928,5.928,0,0,0-4.81-2.494,6.147,6.147,0,0,0-.67.037l-.208.022a7.01,7.01,0,0,1-.758.042,5.61,5.61,0,0,1-3.907-1.5,6.2,6.2,0,0,1-1.833-3.462,6.031,6.031,0,0,1,.573-3.833,5.827,5.827,0,0,1,3.29-2.739l.25-.089a5.908,5.908,0,0,0,3.8-4.267,5.907,5.907,0,0,0-1.564-5.492l-.15-.156a5.915,5.915,0,0,1-1.7-3.17,5.719,5.719,0,0,1,.379-3.184,6.092,6.092,0,0,1,5.484-3.814,5.987,5.987,0,0,1,3.2.969l.075.047a5.911,5.911,0,0,0,3.135.91,5.944,5.944,0,0,0,5.908-5.256,5.794,5.794,0,0,1,2.071-3.94,6.076,6.076,0,0,1,3.824-1.313,6.076,6.076,0,0,1,3.824,1.313,5.8,5.8,0,0,1,2.071,3.938,5.945,5.945,0,0,0,5.908,5.259,5.908,5.908,0,0,0,3.134-.91l.078-.047a5.981,5.981,0,0,1,3.2-.969,6.092,6.092,0,0,1,5.483,3.814,5.719,5.719,0,0,1,.379,3.184,5.911,5.911,0,0,1-1.7,3.17l-.15.156a5.907,5.907,0,0,0-1.564,5.492,5.907,5.907,0,0,0,3.8,4.267l.25.089a5.827,5.827,0,0,1,3.29,2.739,6.026,6.026,0,0,1,.573,3.832,6.186,6.186,0,0,1-1.832,3.463,5.611,5.611,0,0,1-3.907,1.5,6.992,6.992,0,0,1-.758-.042l-.209-.022a6.147,6.147,0,0,0-.67-.037,5.924,5.924,0,0,0-4.807,2.492,5.86,5.86,0,0,0-.778,5.373l.033.094a5.707,5.707,0,0,1-.671,5.305A6.319,6.319,0,0,1-11031.593,174.616ZM-11041.5,137a10.512,10.512,0,0,0-10.5,10.5,10.513,10.513,0,0,0,10.5,10.5,10.512,10.512,0,0,0,10.5-10.5A10.511,10.511,0,0,0-11041.5,137Z" transform="translate(11997 173)" fill="#dfdfdf"/>
    <path id="gear-4" data-name="gear" d="M-11031.593,174.616a5.662,5.662,0,0,1-4.89-2.809,5.9,5.9,0,0,0-5.018-2.768,5.9,5.9,0,0,0-5.018,2.768,5.666,5.666,0,0,1-4.89,2.809,6.321,6.321,0,0,1-5.071-2.6,5.709,5.709,0,0,1-.671-5.306l.033-.094a5.856,5.856,0,0,0-.776-5.371,5.928,5.928,0,0,0-4.81-2.494,6.147,6.147,0,0,0-.67.037l-.208.022a7.01,7.01,0,0,1-.758.042,5.61,5.61,0,0,1-3.907-1.5,6.2,6.2,0,0,1-1.833-3.462,6.031,6.031,0,0,1,.573-3.833,5.827,5.827,0,0,1,3.29-2.739l.25-.089a5.908,5.908,0,0,0,3.8-4.267,5.907,5.907,0,0,0-1.564-5.492l-.15-.156a5.915,5.915,0,0,1-1.7-3.17,5.719,5.719,0,0,1,.379-3.184,6.092,6.092,0,0,1,5.484-3.814,5.987,5.987,0,0,1,3.2.969l.075.047a5.911,5.911,0,0,0,3.135.91,5.944,5.944,0,0,0,5.908-5.256,5.794,5.794,0,0,1,2.071-3.94,6.076,6.076,0,0,1,3.824-1.313,6.076,6.076,0,0,1,3.824,1.313,5.8,5.8,0,0,1,2.071,3.938,5.945,5.945,0,0,0,5.908,5.259,5.908,5.908,0,0,0,3.134-.91l.078-.047a5.981,5.981,0,0,1,3.2-.969,6.092,6.092,0,0,1,5.483,3.814,5.719,5.719,0,0,1,.379,3.184,5.911,5.911,0,0,1-1.7,3.17l-.15.156a5.907,5.907,0,0,0-1.564,5.492,5.907,5.907,0,0,0,3.8,4.267l.25.089a5.827,5.827,0,0,1,3.29,2.739,6.026,6.026,0,0,1,.573,3.832,6.186,6.186,0,0,1-1.832,3.463,5.611,5.611,0,0,1-3.907,1.5,6.992,6.992,0,0,1-.758-.042l-.209-.022a6.147,6.147,0,0,0-.67-.037,5.924,5.924,0,0,0-4.807,2.492,5.86,5.86,0,0,0-.778,5.373l.033.094a5.707,5.707,0,0,1-.671,5.305A6.319,6.319,0,0,1-11031.593,174.616ZM-11041.5,137a10.512,10.512,0,0,0-10.5,10.5,10.513,10.513,0,0,0,10.5,10.5,10.512,10.512,0,0,0,10.5-10.5A10.511,10.511,0,0,0-11041.5,137Z" transform="translate(12085 260)" fill="#dfdfdf"/>
    <path id="gear-5" data-name="gear" d="M-11045,154.75a3.662,3.662,0,0,1-3.15-1.8l-.122-.189a3.813,3.813,0,0,0-3.231-1.773,3.813,3.813,0,0,0-3.231,1.773l-.122.189a3.663,3.663,0,0,1-3.15,1.8,4.078,4.078,0,0,1-3.277-1.684,3.687,3.687,0,0,1-.425-3.434l.045-.133a3.786,3.786,0,0,0-.494-3.479,3.831,3.831,0,0,0-3.111-1.616,3.991,3.991,0,0,0-.427.023l-.047.006a4.526,4.526,0,0,1-.485.027,3.714,3.714,0,0,1-3.709-3.208,3.691,3.691,0,0,1,2.508-4.246,3.813,3.813,0,0,0,2.466-2.765,3.809,3.809,0,0,0-1.024-3.557l-.03-.031a3.68,3.68,0,0,1-.867-4.111,3.934,3.934,0,0,1,3.546-2.474,3.868,3.868,0,0,1,2.054.616l.125.078a3.822,3.822,0,0,0,2.011.579,3.84,3.84,0,0,0,3.815-3.391l.025-.22a3.706,3.706,0,0,1,3.808-3.386,3.7,3.7,0,0,1,3.806,3.386l.025.22a3.841,3.841,0,0,0,3.816,3.391,3.814,3.814,0,0,0,2.01-.579l.125-.078a3.874,3.874,0,0,1,2.055-.616,3.934,3.934,0,0,1,3.546,2.473,3.68,3.68,0,0,1-.868,4.112l-.03.031a3.81,3.81,0,0,0-1.024,3.557,3.812,3.812,0,0,0,2.464,2.764,3.69,3.69,0,0,1,2.509,4.245,3.713,3.713,0,0,1-3.708,3.209,4.526,4.526,0,0,1-.485-.027l-.047-.006a3.991,3.991,0,0,0-.427-.023,3.831,3.831,0,0,0-3.111,1.615,3.786,3.786,0,0,0-.494,3.479l.045.133a3.686,3.686,0,0,1-.426,3.433A4.078,4.078,0,0,1-11045,154.75Zm-6.5-24.332a6.8,6.8,0,0,0-6.824,6.755,6.8,6.8,0,0,0,6.824,6.752,6.8,6.8,0,0,0,6.824-6.752A6.8,6.8,0,0,0-11051.5,130.418Z" transform="translate(12105 370)" fill="#dfdfdf"/>
    <path id="gear-6" data-name="gear" d="M-11043.583,198.634a8.967,8.967,0,0,1-7.19-3.68,8.1,8.1,0,0,1-.963-7.517l.117-.339a8.316,8.316,0,0,0-1.113-7.612,8.416,8.416,0,0,0-6.825-3.532,8.743,8.743,0,0,0-.95.052l-.739.083a9.941,9.941,0,0,1-1.083.06,7.953,7.953,0,0,1-5.538-2.122,8.783,8.783,0,0,1-2.6-4.9,8.554,8.554,0,0,1,.808-5.436,8.266,8.266,0,0,1,4.657-3.893l.887-.317a8.384,8.384,0,0,0,5.366-6.044,8.388,8.388,0,0,0-2.2-7.78l-.539-.55a8.386,8.386,0,0,1-2.389-4.5,8.11,8.11,0,0,1,.547-4.511,8.648,8.648,0,0,1,7.778-5.4,8.484,8.484,0,0,1,4.563,1.389l.272.172a8.387,8.387,0,0,0,4.471,1.305,8.435,8.435,0,0,0,8.384-7.464v-.014a8.219,8.219,0,0,1,2.936-5.592,8.621,8.621,0,0,1,5.429-1.864,8.625,8.625,0,0,1,5.429,1.864,8.219,8.219,0,0,1,2.936,5.592v.014a8.436,8.436,0,0,0,8.385,7.464,8.379,8.379,0,0,0,4.47-1.305l.272-.172a8.484,8.484,0,0,1,4.563-1.389,8.648,8.648,0,0,1,7.778,5.4,8.123,8.123,0,0,1,.547,4.511,8.388,8.388,0,0,1-2.389,4.5l-.539.55a8.388,8.388,0,0,0-2.2,7.78,8.384,8.384,0,0,0,5.366,6.044l.887.317a8.266,8.266,0,0,1,4.657,3.892,8.551,8.551,0,0,1,.807,5.435,8.786,8.786,0,0,1-2.6,4.906,7.958,7.958,0,0,1-5.538,2.123,9.941,9.941,0,0,1-1.083-.06l-.737-.083a8.76,8.76,0,0,0-.951-.052,8.42,8.42,0,0,0-6.825,3.531,8.319,8.319,0,0,0-1.114,7.613l.116.339a8.1,8.1,0,0,1-.962,7.516,8.969,8.969,0,0,1-7.19,3.681,8.031,8.031,0,0,1-6.947-4,8.373,8.373,0,0,0-7.135-3.95,8.378,8.378,0,0,0-7.137,3.95A8.031,8.031,0,0,1-11043.583,198.634Zm14.084-53.74a14.964,14.964,0,0,0-14.9,15,14.963,14.963,0,0,0,14.9,14.994,14.962,14.962,0,0,0,14.895-14.994A14.963,14.963,0,0,0-11029.5,144.894Z" transform="translate(11881 388)" fill="#dfdfdf"/>
    <path id="gear-7" data-name="gear" d="M-11031.593,174.616a5.662,5.662,0,0,1-4.89-2.809,5.9,5.9,0,0,0-5.018-2.768,5.9,5.9,0,0,0-5.018,2.768,5.666,5.666,0,0,1-4.89,2.809,6.321,6.321,0,0,1-5.071-2.6,5.709,5.709,0,0,1-.671-5.306l.033-.094a5.856,5.856,0,0,0-.776-5.371,5.928,5.928,0,0,0-4.81-2.494,6.147,6.147,0,0,0-.67.037l-.208.022a7.01,7.01,0,0,1-.758.042,5.61,5.61,0,0,1-3.907-1.5,6.2,6.2,0,0,1-1.833-3.462,6.031,6.031,0,0,1,.573-3.833,5.827,5.827,0,0,1,3.29-2.739l.25-.089a5.908,5.908,0,0,0,3.8-4.267,5.907,5.907,0,0,0-1.564-5.492l-.15-.156a5.915,5.915,0,0,1-1.7-3.17,5.719,5.719,0,0,1,.379-3.184,6.092,6.092,0,0,1,5.484-3.814,5.987,5.987,0,0,1,3.2.969l.075.047a5.911,5.911,0,0,0,3.135.91,5.944,5.944,0,0,0,5.908-5.256,5.794,5.794,0,0,1,2.071-3.94,6.076,6.076,0,0,1,3.824-1.313,6.076,6.076,0,0,1,3.824,1.313,5.8,5.8,0,0,1,2.071,3.938,5.945,5.945,0,0,0,5.908,5.259,5.908,5.908,0,0,0,3.134-.91l.078-.047a5.981,5.981,0,0,1,3.2-.969,6.092,6.092,0,0,1,5.483,3.814,5.719,5.719,0,0,1,.379,3.184,5.911,5.911,0,0,1-1.7,3.17l-.15.156a5.907,5.907,0,0,0-1.564,5.492,5.907,5.907,0,0,0,3.8,4.267l.25.089a5.827,5.827,0,0,1,3.29,2.739,6.026,6.026,0,0,1,.573,3.832,6.186,6.186,0,0,1-1.832,3.463,5.611,5.611,0,0,1-3.907,1.5,6.992,6.992,0,0,1-.758-.042l-.209-.022a6.147,6.147,0,0,0-.67-.037,5.924,5.924,0,0,0-4.807,2.492,5.86,5.86,0,0,0-.778,5.373l.033.094a5.707,5.707,0,0,1-.671,5.305A6.319,6.319,0,0,1-11031.593,174.616ZM-11041.5,137a10.512,10.512,0,0,0-10.5,10.5,10.513,10.513,0,0,0,10.5,10.5,10.512,10.512,0,0,0,10.5-10.5A10.511,10.511,0,0,0-11041.5,137Z" transform="translate(12203 96)" fill="#dfdfdf"/>
  </g>
  <g id="_" data-name="?" transform="translate(192.677 -39.497)">
    <path id="Tracciato_268" data-name="Tracciato 268" d="M268.237,225.12a55.871,55.871,0,1,1,25.923,20.814,18.073,18.073,0,1,1-25.923-20.814Z" transform="translate(-162.73 -98.565)" fill="#f5f5f5"/>
    <path id="Tracciato_269" data-name="Tracciato 269" d="M356.17,190.679c12.808,0,21.62,7.1,21.62,17.317,0,6.763-3.279,11.442-9.6,15.165-5.943,3.45-7.958,5.977-7.958,10.349h0a2.7,2.7,0,0,1-2.7,2.7h-6.548a2.7,2.7,0,0,1-2.7-2.6l-.012-.333c-.581-7.036,1.879-11.408,8.061-15.028,5.772-3.45,8.2-5.636,8.2-9.871s-4.1-7.343-9.188-7.343a8.752,8.752,0,0,0-8.333,4.957,6.029,6.029,0,0,1-5.51,3.445h0a5.927,5.927,0,0,1-5.292-8.639C339.5,194.588,346.421,190.679,356.17,190.679Zm-8.983,58.542a7.332,7.332,0,1,1,7.309,7.036A7.154,7.154,0,0,1,347.186,249.221Z" transform="translate(-204.619 -127.245)" fill="#00a47f"/>
  </g>
  <g transform="matrix(1, 0, 0, 1, 0, 0)" filter="url(#_404)">
    <text id="_404-3" data-name="404" transform="translate(21.68 311.24)" fill="#00a47f" font-size="281" font-family="Roboto-Black, Roboto" font-weight="800"><tspan x="0" y="0">404</tspan></text>
  </g>
</svg>
