<svg xmlns="http://www.w3.org/2000/svg" width="204.674" height="144.793" viewBox="0 0 204.674 144.793">
  <g id="undraw_join" transform="translate(0 0)">
    <path id="Tracciato_344" data-name="Tracciato 344" d="M839.931,271.039c-2.823,9.795-11.067,16.651-19.667,22.475q-1.8,1.22-3.6,2.384c-.008,0-.016.011-.025.015-.058.037-.116.074-.17.112l-.742.478.135.061s.133.07-.013.011l-.131-.052c-5-2.015-10.08-4.178-13.909-7.953-3.971-3.92-6.292-10.067-4.142-15.216a9.831,9.831,0,0,1,1.064-1.911c.174-.25.362-.489.558-.723a10.538,10.538,0,0,1,18.1,3.2c.632-5.882-4.219-10.81-8.886-14.445s-9.976-7.591-10.879-13.441a11.4,11.4,0,0,1,2.689-8.941c.064-.077.128-.154.193-.229a15.379,15.379,0,0,1,9.884-5.3c7.161-.744,14.116,3.046,19.318,8.025C838.08,247.6,843.141,259.9,839.931,271.039Z" transform="translate(-636.231 -223.777)" fill="#f2f2f2"/>
    <path id="Tracciato_345" data-name="Tracciato 345" d="M830.954,270.992a26.139,26.139,0,0,1,3.132,6.908,22.7,22.7,0,0,1,.785,6.7,29.083,29.083,0,0,1-3.809,13.236,41.858,41.858,0,0,1-6.315,8.438q-1.8,1.22-3.6,2.384c-.008,0-.017.011-.025.015-.058.037-.116.074-.17.112l-.742.478s.268.131.123.072l-.132-.052a22.935,22.935,0,0,0-16.986-25.08c.174-.25.362-.489.558-.723a24.188,24.188,0,0,1,3.994,1.511,23.708,23.708,0,0,1,10.72,10.335,24.24,24.24,0,0,1,2.639,13.3c.205-.186.411-.376.61-.564a42.5,42.5,0,0,0,9.45-12.29,27.057,27.057,0,0,0,2.833-12.8,24.455,24.455,0,0,0-4.9-13.215A56.636,56.636,0,0,0,818.377,258.7a64.356,64.356,0,0,0-13.352-8.243.463.463,0,0,1-.233-.594.394.394,0,0,1,.193-.229.343.343,0,0,1,.3.013c.589.271,1.174.546,1.754.833a65.087,65.087,0,0,1,13.447,8.87A52.4,52.4,0,0,1,830.954,270.992Z" transform="translate(-640.713 -236.541)" fill="#fff"/>
    <circle id="Ellisse_118" data-name="Ellisse 118" cx="10.472" cy="10.472" r="10.472" transform="translate(147.152 82.4)" fill="#2f2e41"/>
    <ellipse id="Ellisse_119" data-name="Ellisse 119" cx="4.333" cy="3.25" rx="4.333" ry="3.25" transform="translate(141.791 85.694) rotate(-45)" fill="#2f2e41"/>
    <ellipse id="Ellisse_120" data-name="Ellisse 120" cx="3.25" cy="4.333" rx="3.25" ry="4.333" transform="translate(159.292 83.486) rotate(-66.869)" fill="#2f2e41"/>
    <path id="Tracciato_346" data-name="Tracciato 346" d="M820.443,618.682a39.024,39.024,0,0,1-5.684,3.277l-.293-.518-2.806-4.926-.246-.432-1.436-2.519,0,0-4.533-7.964-2.33-4.089,6.919-4.852,2.691,5.69,1.459,3.091,6.007,12.7Z" transform="translate(-640.643 -480.847)" fill="#a0616a"/>
    <path id="Tracciato_347" data-name="Tracciato 347" d="M807.546,581.767l-.867-1.359-3.837-6.019a4.842,4.842,0,1,0-8.852,3.929l2.372,8.449a1.739,1.739,0,0,0,2.365,1.128l.024-.009,7.256-3.242.781-.349a1.747,1.747,0,0,0,.758-2.528Z" transform="translate(-633.926 -463.146)" fill="#00a47f"/>
    <path id="Tracciato_348" data-name="Tracciato 348" d="M732.311,601.888l-2.019,4.559-.438.992-7.475,16.887-.24.542a38.808,38.808,0,0,1-5.826-3.031l.2-.569,6.1-17.216,1.5-4.228,3.28.826Z" transform="translate(-579.54 -483.078)" fill="#a0616a"/>
    <circle id="Ellisse_121" data-name="Ellisse 121" cx="8.887" cy="8.887" r="8.887" transform="translate(145.894 98.909) rotate(-61.337)" fill="#a0616a"/>
    <path id="Tracciato_349" data-name="Tracciato 349" d="M774.6,580.814a19.783,19.783,0,0,0-.7-3.458,19.272,19.272,0,0,0-5.569-8.834,5.266,5.266,0,0,0-3.523-1.347h-12.52a5.265,5.265,0,0,0-4.716,7.632l1.43,2.86,2.9,5.8.7,1.388,3.1,6.2.246.491,15.735,4.328.068-.151c.059-.133.118-.263.175-.394.086-.2.172-.391.252-.586a30.738,30.738,0,0,0,2.516-10.06A22.4,22.4,0,0,0,774.6,580.814Z" transform="translate(-601.152 -460.094)" fill="#00a47f"/>
    <path id="Tracciato_350" data-name="Tracciato 350" d="M745.03,571.566a4.835,4.835,0,0,0-6.421,2.309l-1.116,1.684-3.73,5.631a1.745,1.745,0,0,0,.714,2.543l.219.1,7.239,3.387.515.24a1.674,1.674,0,0,0,.619.157,1.708,1.708,0,0,0,.835-.145,1.741,1.741,0,0,0,.956-1.09l2.5-8.381A4.847,4.847,0,0,0,745.03,571.566Z" transform="translate(-591.62 -462.864)" fill="#00a47f"/>
    <path id="Tracciato_351" data-name="Tracciato 351" d="M774,648.152a1.62,1.62,0,0,0-.252-.512,6.776,6.776,0,0,0-1.436-1.421l0,0c-1.9-1.442-5.693-3.126-13-3.171h-.012a1.746,1.746,0,0,0-1.59,1.021l-.18.4-1.164,2.558a1.334,1.334,0,0,1-.453.548,17.438,17.438,0,0,0-6.125,8.583c-.062.183-.122.37-.178.562a39.109,39.109,0,0,0,22.61-.2l.163-.672,1.617-6.667.027-.109A1.749,1.749,0,0,0,774,648.152Z" transform="translate(-602.974 -513.503)" fill="#2f2e41"/>
    <path id="Tracciato_352" data-name="Tracciato 352" d="M756.322,497.429a12.086,12.086,0,0,0,6.908,2.135,7.407,7.407,0,0,1-2.936,1.208,24.372,24.372,0,0,0,9.956.056,6.444,6.444,0,0,0,2.084-.716,2.637,2.637,0,0,0,1.286-1.72c.218-1.248-.754-2.382-1.764-3.146a13.015,13.015,0,0,0-10.937-2.186,5.989,5.989,0,0,0-3.239,1.831,2.95,2.95,0,0,0-.273,3.5Z" transform="translate(-607.705 -407.647)" fill="#2f2e41"/>
    <rect id="Rettangolo_120" data-name="Rettangolo 120" width="160.556" height="0.644" transform="translate(0.322 9.024)" fill="#3f3d56"/>
    <circle id="Ellisse_122" data-name="Ellisse 122" cx="1.931" cy="1.931" r="1.931" transform="translate(3.861 2.897)" fill="#3f3d56"/>
    <circle id="Ellisse_123" data-name="Ellisse 123" cx="1.931" cy="1.931" r="1.931" transform="translate(9.411 2.897)" fill="#3f3d56"/>
    <circle id="Ellisse_124" data-name="Ellisse 124" cx="1.931" cy="1.931" r="1.931" transform="translate(14.961 2.897)" fill="#3f3d56"/>
    <path id="Tracciato_353" data-name="Tracciato 353" d="M458.7,352.286H367.574a2.065,2.065,0,0,1,0-4.13H458.7a2.065,2.065,0,0,1,0,4.13Z" transform="translate(-332.594 -305.917)" fill="#ccc"/>
    <path id="Tracciato_354" data-name="Tracciato 354" d="M458.7,427.274H367.574a2.065,2.065,0,0,1,0-4.13H458.7a2.065,2.065,0,1,1,0,4.13Z" transform="translate(-332.594 -358.705)" fill="#e6e6e6"/>
    <path id="Tracciato_355" data-name="Tracciato 355" d="M458.7,456.048H367.574a2.065,2.065,0,0,1,0-4.13H458.7a2.065,2.065,0,1,1,0,4.13Z" transform="translate(-332.594 -378.96)" fill="#e6e6e6"/>
    <path id="Tracciato_356" data-name="Tracciato 356" d="M479.15,322.64H417.712a2.065,2.065,0,0,1,0-4.13H479.15a2.065,2.065,0,0,1,0,4.13Z" transform="translate(-367.888 -285.048)" fill="#ccc"/>
    <path id="Tracciato_357" data-name="Tracciato 357" d="M399.976,398.5h-32.01a2.065,2.065,0,0,1,0-4.13h32.01a2.065,2.065,0,0,1,0,4.13Z" transform="translate(-332.87 -338.449)" fill="#e6e6e6"/>
    <path id="Tracciato_358" data-name="Tracciato 358" d="M599.653,398.5h-32.01a2.065,2.065,0,1,1,0-4.13h32.01a2.065,2.065,0,0,1,0,4.13Z" transform="translate(-473.431 -338.449)" fill="#e6e6e6"/>
    <path id="Tracciato_359" data-name="Tracciato 359" d="M413.278,205.485h-156.7a2.253,2.253,0,0,0-2.25,2.253v106.18a2.253,2.253,0,0,0,2.25,2.25H373.758c-.03-.213-.053-.429-.077-.642h-117.1a1.609,1.609,0,0,1-1.608-1.608V207.738a1.612,1.612,0,0,1,1.608-1.611h156.7a1.612,1.612,0,0,1,1.611,1.611v65.076c.213.015.429.033.643.053V207.738A2.254,2.254,0,0,0,413.278,205.485Z" transform="translate(-254.332 -205.485)" fill="#3f3d56"/>
    <path id="Tracciato_360" data-name="Tracciato 360" d="M655.546,474.577c-.03-.213-.053-.429-.077-.642-.006-.033-.009-.062-.012-.095q-.129-1.168-.187-2.36-.244,1.026-.441,2.061c.009.1.018.2.03.3,0,.033.006.062.012.095.024.213.047.429.077.642.083.66.184,1.312.3,1.96l.009-.077c.083-.625.178-1.246.29-1.868A.028.028,0,0,1,655.546,474.577Zm41.774-43.9c-.213-.021-.429-.038-.643-.053l-.095-.006c-.947-.071-1.907-.107-2.872-.107a39.091,39.091,0,0,0-38.881,43.026c.009.1.018.2.029.3,0,.033.006.062.012.095.024.213.047.429.077.642.083.66.183,1.312.3,1.96a39.25,39.25,0,0,0,23.468,29.147c.616.255,1.237.5,1.868.719.414.151.829.29,1.249.423.3.1.607.19.912.278.432.127.87.249,1.312.361a38.888,38.888,0,0,0,31.862-5.738h0a39.067,39.067,0,0,0-18.6-71.047Zm18.347,70.506a38.312,38.312,0,0,1-5.723,3.3,37.9,37.9,0,0,1-4.423,1.741,38.556,38.556,0,0,1-21.044.731q-.782-.191-1.551-.417t-1.5-.471c-.406-.139-.811-.281-1.214-.432-.42-.16-.835-.326-1.249-.5a38.586,38.586,0,0,1-23.409-30.55.028.028,0,0,1,0-.015c-.03-.213-.053-.429-.077-.642-.006-.033-.009-.062-.012-.095q-.129-1.168-.187-2.36-.049-.937-.047-1.886a38.529,38.529,0,0,1,38.487-38.487c.965,0,1.924.035,2.872.107l.095.009c.213.015.429.033.643.053a38.475,38.475,0,0,1,18.351,69.908Zm-35.459,4.453c-.42-.16-.835-.326-1.249-.5a38.586,38.586,0,0,1-23.409-30.55c-.112.622-.207,1.243-.29,1.868l-.009.077a39.249,39.249,0,0,0,23.468,29.147c.616.255,1.237.5,1.868.719C680.456,506.151,680.329,505.9,680.207,505.639Zm16.375-75.018c-.947-.071-1.906-.107-2.872-.107a39.092,39.092,0,0,0-38.881,43.026c.009.1.018.2.03.3,0,.033.006.062.012.095h.6c-.006-.033-.009-.062-.012-.095q-.129-1.168-.187-2.36-.049-.937-.047-1.886a38.529,38.529,0,0,1,38.487-38.487c.965,0,1.924.036,2.872.107l.095.009v-.6l-.095-.006Z" transform="translate(-536.12 -363.893)" fill="#3f3d56"/>
    <path id="Tracciato_361" data-name="Tracciato 361" d="M872.523,464.3c12,.2,12,18.06,0,18.263C860.52,482.36,860.521,464.505,872.523,464.3Z" transform="translate(-683.167 -387.678)" fill="#00a47f"/>
    <path id="Tracciato_362" data-name="Tracciato 362" d="M882.1,488.295a.642.642,0,0,1-.642-.642v-3.4a.286.286,0,0,0-.286-.286h-3.4a.642.642,0,0,1,0-1.284h3.4a.286.286,0,0,0,.286-.286v-3.4a.642.642,0,1,1,1.283,0v3.4a.286.286,0,0,0,.286.286h3.4a.642.642,0,1,1,0,1.284h-3.4a.286.286,0,0,0-.286.286v3.4A.643.643,0,0,1,882.1,488.295Z" transform="translate(-692.748 -397.567)" fill="#fff"/>
  </g>
</svg>
