<svg xmlns="http://www.w3.org/2000/svg" width="164.057" height="144.793" viewBox="0 0 164.057 144.793">
  <g id="card-3" transform="translate(0 0)">
    <path id="Tracciato_334" data-name="Tracciato 334" d="M902.061,179.858h-.29v-7.933a4.592,4.592,0,0,0-4.592-4.592H880.372a4.592,4.592,0,0,0-4.592,4.592v43.523a4.592,4.592,0,0,0,4.592,4.592H897.18a4.591,4.591,0,0,0,4.591-4.592V185.506h.29Z" transform="translate(-759.666 -154.801)" fill="#e5e5e5"/>
    <path id="Tracciato_335" data-name="Tracciato 335" d="M899.559,171.178h-2.194a1.629,1.629,0,0,1-1.508,2.244h-9.629a1.629,1.629,0,0,1-1.508-2.244h-2.049a3.429,3.429,0,0,0-3.429,3.429v43.46a3.429,3.429,0,0,0,3.429,3.429h16.889a3.429,3.429,0,0,0,3.429-3.429h0v-43.46A3.429,3.429,0,0,0,899.559,171.178Z" transform="translate(-762.052 -157.451)" fill="#fff"/>
    <rect id="Rettangolo_107" data-name="Rettangolo 107" width="10.471" height="0.83" transform="translate(127.559 29.661)" fill="#e5e5e5"/>
    <rect id="Rettangolo_108" data-name="Rettangolo 108" width="10.471" height="0.83" transform="translate(127.559 32.288)" fill="#e5e5e5"/>
    <rect id="Rettangolo_109" data-name="Rettangolo 109" width="10.471" height="0.83" transform="translate(127.559 34.915)" fill="#e5e5e5"/>
    <rect id="Rettangolo_110" data-name="Rettangolo 110" width="5.059" height="5.059" transform="translate(120.478 30.174)" fill="#e5e5e5"/>
    <circle id="Ellisse_109" data-name="Ellisse 109" cx="2.201" cy="2.201" r="2.201" transform="translate(121.736 43.708)" fill="#00a47f"/>
    <circle id="Ellisse_110" data-name="Ellisse 110" cx="1.799" cy="1.799" r="1.799" transform="translate(128.009 44.11)" fill="#00a47f"/>
    <circle id="Ellisse_111" data-name="Ellisse 111" cx="1.094" cy="1.094" r="1.094" transform="translate(134.584 44.814)" fill="#00a47f"/>
    <path id="Tracciato_336" data-name="Tracciato 336" d="M620.205,189.855H581.621a3.453,3.453,0,0,1-3.449-3.449V130.45a3.453,3.453,0,0,1,3.449-3.45h38.584a3.453,3.453,0,0,1,3.449,3.449v55.956A3.453,3.453,0,0,1,620.205,189.855Z" transform="translate(-554.529 -127)" fill="#e5e5e5"/>
    <path id="Tracciato_337" data-name="Tracciato 337" d="M625.416,192.536H586.7a1.064,1.064,0,0,1-1.063-1.063V135.146a1.064,1.064,0,0,1,1.063-1.063h38.72a1.065,1.065,0,0,1,1.063,1.063v56.327A1.065,1.065,0,0,1,625.416,192.536Z" transform="translate(-559.671 -131.882)" fill="#fff"/>
    <circle id="Ellisse_112" data-name="Ellisse 112" cx="0.293" cy="0.293" r="0.293" transform="translate(45.944 0.763)" fill="#fff"/>
    <rect id="Rettangolo_111" data-name="Rettangolo 111" width="21.536" height="1.237" transform="translate(40.896 19.475)" fill="#e5e5e5"/>
    <rect id="Rettangolo_112" data-name="Rettangolo 112" width="21.536" height="1.237" transform="translate(40.896 23.394)" fill="#e5e5e5"/>
    <rect id="Rettangolo_113" data-name="Rettangolo 113" width="21.536" height="1.237" transform="translate(40.896 27.312)" fill="#e5e5e5"/>
    <rect id="Rettangolo_114" data-name="Rettangolo 114" width="7.545" height="7.545" transform="translate(30.336 20.24)" fill="#e5e5e5"/>
    <circle id="Ellisse_113" data-name="Ellisse 113" cx="2.998" cy="2.998" r="2.998" transform="translate(36.146 37.384)" fill="#00a47f"/>
    <circle id="Ellisse_114" data-name="Ellisse 114" cx="2.45" cy="2.45" r="2.45" transform="translate(44.688 37.932)" fill="#00a47f"/>
    <circle id="Ellisse_115" data-name="Ellisse 115" cx="1.49" cy="1.49" r="1.49" transform="translate(53.642 38.892)" fill="#00a47f"/>
    <path id="Tracciato_338" data-name="Tracciato 338" d="M690.079,345.953H576.237a3.133,3.133,0,0,0-3.133,3.133v63.431a3.133,3.133,0,0,0,3.133,3.133H690.079a3.133,3.133,0,0,0,3.133-3.133V349.086A3.133,3.133,0,0,0,690.079,345.953Z" transform="translate(-551.036 -277.921)" fill="#3f3d56"/>
    <rect id="Rettangolo_115" data-name="Rettangolo 115" width="111.707" height="63.014" transform="translate(26.269 73.569)" fill="#fff"/>
    <circle id="Ellisse_116" data-name="Ellisse 116" cx="1.146" cy="1.146" r="1.146" transform="translate(80.881 69.559)" fill="#fff"/>
    <path id="Tracciato_339" data-name="Tracciato 339" d="M685.759,560.8h-10.9v-.785a.156.156,0,0,0-.156-.156h-3.738a.156.156,0,0,0-.156.156v.785h-2.336v-.785a.156.156,0,0,0-.156-.156h-3.738a.156.156,0,0,0-.156.156h0v.785h-2.336v-.785a.156.156,0,0,0-.156-.156h-3.738a.156.156,0,0,0-.156.156h0v.785H655.7v-.785a.156.156,0,0,0-.156-.156h-3.738a.156.156,0,0,0-.156.156v.785h-2.336v-.785a.156.156,0,0,0-.156-.156h-3.738a.156.156,0,0,0-.156.156h0v.785H642.93v-.785a.156.156,0,0,0-.156-.156h-3.738a.156.156,0,0,0-.156.156h0v.785h-2.336v-.785a.156.156,0,0,0-.156-.156H607.11a.156.156,0,0,0-.156.156h0v.785h-2.336v-.785a.156.156,0,0,0-.156-.156h-3.738a.156.156,0,0,0-.156.156h0v.785h-2.336v-.785a.156.156,0,0,0-.156-.156h-3.738a.156.156,0,0,0-.156.156h0v.785h-2.336v-.785a.156.156,0,0,0-.156-.156h-3.738a.156.156,0,0,0-.156.156h0v.785h-2.336v-.785a.156.156,0,0,0-.156-.156h-3.738a.156.156,0,0,0-.156.156h0v.785h-2.336v-.785a.156.156,0,0,0-.156-.156h-3.738a.156.156,0,0,0-.156.156v.786h-2.336v-.785a.156.156,0,0,0-.156-.156H568.8a.156.156,0,0,0-.156.156h0v.785h-7.164a3.738,3.738,0,0,0-3.738,3.738v1.69a3.738,3.738,0,0,0,3.738,3.738H685.759a3.738,3.738,0,0,0,3.738-3.738v-1.69a3.738,3.738,0,0,0-3.738-3.738Z" transform="translate(-540.446 -425.366)" fill="#3f3d56"/>
    <rect id="Rettangolo_116" data-name="Rettangolo 116" width="36.123" height="1.342" transform="translate(70.899 79.569)" fill="#cbcbcb"/>
    <rect id="Rettangolo_117" data-name="Rettangolo 117" width="36.123" height="1.342" transform="translate(70.899 83.82)" fill="#cbcbcb"/>
    <rect id="Rettangolo_118" data-name="Rettangolo 118" width="36.123" height="1.342" transform="translate(70.899 88.07)" fill="#cbcbcb"/>
    <rect id="Rettangolo_119" data-name="Rettangolo 119" width="8.184" height="8.184" transform="translate(59.444 80.399)" fill="#cbcbcb"/>
    <circle id="Ellisse_117" data-name="Ellisse 117" cx="14.322" cy="14.322" r="14.322" transform="translate(67.713 96.199)" fill="#00a47f"/>
    <path id="Tracciato_340" data-name="Tracciato 340" d="M582.032,338.621h-3l5.314-10.8,5.342,10.79H586.68v4.49h-4.648Z" transform="translate(-502.322 -225.963)" fill="#fff"/>
    <path id="Tracciato_341" data-name="Tracciato 341" d="M515.5,303.077a13.605,13.605,0,0,1,7.925-4.554l-1.372-1.152,1.467-.127,1.877,1.578-1.578,1.878-1.467.127,1.057-1.257a12.624,12.624,0,0,0,2.914,25l.037,1.022A13.648,13.648,0,0,1,515.5,303.077Z" transform="translate(-509.074 -244.347)" fill="#e5e5e5"/>
    <path id="Tracciato_342" data-name="Tracciato 342" d="M988.551,312.44a13.649,13.649,0,0,1-14.131,13.149l.037-1.022a12.624,12.624,0,0,0,2.914-25l1.057,1.257-1.467-.127-1.578-1.878,1.878-1.578,1.467.127-1.372,1.152A13.647,13.647,0,0,1,988.55,312.44Z" transform="translate(-827.658 -244.346)" fill="#e5e5e5"/>
    <path id="Tracciato_343" data-name="Tracciato 343" d="M665.826,591.622H502.391a.311.311,0,0,1,0-.622H665.826a.311.311,0,0,1,0,.622Z" transform="translate(-502.08 -446.829)" fill="#cbcbcb"/>
  </g>
</svg>
