<svg width="172px" height="199px" viewBox="0 0 172 199" version="1.1" xmlns="http://www.w3.org/2000/svg"
     xmlns:xlink="http://www.w3.org/1999/xlink">
  <defs>
    <path d="M39.813722,135.509732 C41.9490461,135.509732 43.5243512,134.857794 44.5396374,133.553919 C45.5549236,132.250044 46.0625667,130.598983 46.0625667,128.600736 C46.0625667,126.533053 45.486432,124.96686 44.3341628,123.902157 C43.1818936,122.837454 41.7717739,122.305103 40.1038038,122.305103 C38.2424458,122.305103 36.7598057,122.922322 35.6558834,124.15676 C34.5519611,125.391198 34,127.049974 34,129.133088 C34,131.077328 34.5237587,132.626162 35.5712762,133.77959 C36.6187937,134.933018 38.0329423,135.509732 39.813722,135.509732 Z M40.0191966,133.715939 C38.7057708,133.715939 37.7468894,133.27617 37.1425524,132.396633 C36.5382154,131.517096 36.2360469,130.417675 36.2360469,129.098369 C36.2360469,127.725057 36.5382154,126.552341 37.1425524,125.580221 C37.7468894,124.608101 38.7138287,124.122041 40.0433701,124.122041 C41.5421258,124.122041 42.5977011,124.692969 43.210096,125.834824 C43.5968717,126.560056 43.7902595,127.501315 43.7902595,128.658601 C43.7902595,129.93933 43.5223368,131.102402 42.9864913,132.147817 C42.4506458,133.193232 41.4615476,133.715939 40.0191966,133.715939 Z M50.6555279,140 L50.6555279,133.669648 C51.1309397,134.23286 51.5620334,134.630195 51.9488091,134.861652 C52.6095509,135.270559 53.4274203,135.475013 54.4024173,135.475013 C55.6433227,135.475013 56.7311293,135.108539 57.6658372,134.375592 C59.1404195,133.218306 59.8777106,131.289497 59.8777106,128.589164 C59.8777106,126.590917 59.3660386,125.053656 58.3426946,123.97738 C57.3193506,122.901105 56.0744164,122.362967 54.6078919,122.362967 C53.6167792,122.362967 52.7545918,122.594424 52.0213295,123.057338 C51.5056286,123.365948 51.0302169,123.801859 50.5950942,124.365071 L50.5950942,124.365071 L50.5950942,122.721725 L48.4799147,122.721725 L48.4799147,140 L50.6555279,140 Z M54.1123356,133.658075 C52.6135798,133.658075 51.582178,133.01771 51.0181301,131.736981 C50.7199905,131.065755 50.5709207,130.251797 50.5709207,129.295108 C50.5709207,128.106961 50.7199905,127.127126 51.0181301,126.355602 C51.5741202,124.912853 52.605522,124.191478 54.1123356,124.191478 C55.6110914,124.191478 56.6424932,124.874277 57.2065411,126.239874 C57.5046806,126.949676 57.6537504,127.798352 57.6537504,128.785902 C57.6537504,130.406102 57.3173362,131.623181 56.6445076,132.437138 C55.9716791,133.251096 55.1276218,133.658075 54.1123356,133.658075 Z M67.4681834,135.498159 C68.1289252,135.498159 68.7211755,135.436437 69.2449342,135.312993 C70.2199313,135.096967 71.0378007,134.680344 71.6985425,134.063125 C72.093376,133.708224 72.4499348,133.251096 72.768219,132.691741 C73.0865031,132.132386 73.2738476,131.62511 73.3302524,131.169911 L73.3302524,131.169911 L71.1908994,131.169911 C71.0297429,131.717692 70.7557768,132.199895 70.3690011,132.616518 C69.6921436,133.334035 68.7856381,133.692793 67.6494845,133.692793 C66.4327527,133.692793 65.534305,133.312818 64.9541415,132.552867 C64.373978,131.792916 64.0637516,130.784149 64.0234625,129.526565 L64.0234625,129.526565 L73.5115535,129.526565 C73.5115535,128.276696 73.4470909,127.366298 73.3181657,126.795371 C73.1731248,125.962125 72.883043,125.233035 72.4479204,124.608101 C71.9966821,123.952306 71.3399692,123.418026 70.4777817,123.00526 C69.6155943,122.592495 68.7252044,122.386113 67.8066122,122.386113 C65.9855433,122.386113 64.510961,123.007189 63.3828653,124.249342 C62.2547695,125.491496 61.6907216,127.107838 61.6907216,129.098369 C61.6907216,131.119762 62.2507406,132.691741 63.3707785,133.814308 C64.4908164,134.936875 65.8566181,135.498159 67.4681834,135.498159 Z M71.2755066,127.871647 L64.0838962,127.871647 C64.1241853,126.806944 64.4827586,125.929335 65.1596161,125.238822 C65.8364735,124.548308 66.6744875,124.203051 67.673658,124.203051 C69.067662,124.203051 70.0628036,124.704541 70.6590828,125.707522 C70.9813959,126.247589 71.1868705,126.968964 71.2755066,127.871647 L71.2755066,127.871647 Z M78.3583363,135.05839 L78.3583363,128.566018 C78.3583363,127.755918 78.4127266,127.132913 78.5215073,126.697002 C78.6302879,126.261091 78.8659794,125.838681 79.2285816,125.429774 C79.6798199,124.920568 80.2035786,124.581098 80.7998578,124.411362 C81.1302287,124.311064 81.5532646,124.260915 82.0689655,124.260915 C83.0842517,124.260915 83.7852826,124.646677 84.1720583,125.418201 C84.4057353,125.881115 84.5225738,126.490619 84.5225738,127.246712 L84.5225738,127.246712 L84.5225738,135.05839 L86.7344472,135.05839 L86.7344472,127.107838 C86.7344472,125.857969 86.557175,124.897422 86.2026306,124.226197 C85.5580045,122.999474 84.3170992,122.386113 82.4799147,122.386113 C81.6419007,122.386113 80.8804361,122.544275 80.1955208,122.8606 C79.5106055,123.176924 78.8619505,123.697703 78.2495556,124.422935 L78.2495556,124.422935 L78.2495556,122.663861 L76.1827231,122.663861 L76.1827231,135.05839 L78.3583363,135.05839 Z M94.3611802,135.498159 C95.255599,135.498159 96.0492949,135.328424 96.742268,134.988953 C97.4352411,134.649483 98.0355492,134.097843 98.5431923,133.334035 L98.5431923,133.334035 L98.5431923,135.05839 L100.501244,135.05839 L100.501244,118 L98.4102382,118 L98.4102382,124.260915 C97.9187107,123.682272 97.4795592,123.277223 97.0927835,123.045765 C96.4239839,122.644573 95.5940277,122.443977 94.602915,122.443977 C92.8140775,122.443977 91.4382036,123.105558 90.4752933,124.428722 C89.512383,125.751885 89.0309278,127.316149 89.0309278,129.121515 C89.0309278,131.050324 89.5587155,132.595301 90.6142908,133.756444 C91.6698661,134.917587 92.9188292,135.498159 94.3611802,135.498159 Z M95.0380377,133.68122 C93.7407276,133.68122 92.7979618,133.233737 92.2097405,132.338769 C91.6215191,131.443802 91.3274085,130.332807 91.3274085,129.005786 C91.3274085,127.447308 91.6678516,126.266877 92.348738,125.464492 C93.0296244,124.662108 93.9179998,124.260915 95.0138642,124.260915 C95.9969191,124.260915 96.8228463,124.637033 97.4916459,125.389269 C98.1604456,126.141504 98.4948454,127.300719 98.4948454,128.866912 C98.4948454,130.417675 98.1705178,131.60775 97.5218628,132.437138 C96.8732077,133.266526 96.045266,133.68122 95.0380377,133.68122 Z M107.197298,135.475013 C108.196469,135.475013 109.111032,135.270559 109.940988,134.861652 C110.770944,134.452744 111.407513,133.970542 111.850693,133.415045 C111.923214,133.90882 112.04811,134.290724 112.225382,134.560757 C112.563811,135.069963 113.107714,135.324566 113.857092,135.324566 C114.163289,135.324566 114.405024,135.312993 114.582296,135.289847 C114.759569,135.266702 115.017419,135.208837 115.355848,135.116255 L115.355848,135.116255 L115.355848,133.577065 C115.218865,133.60021 115.08994,133.61757 114.969072,133.629143 C114.848205,133.640715 114.739424,133.646502 114.64273,133.646502 C114.344591,133.646502 114.149188,133.580922 114.056523,133.449763 C113.963858,133.318604 113.917526,133.145011 113.917526,132.928985 L113.917526,132.928985 L113.917526,125.788532 C113.917526,124.615816 113.446143,123.75171 112.503377,123.196213 C111.552554,122.640715 110.315677,122.362967 108.792748,122.362967 C107.479322,122.362967 106.325039,122.661932 105.329897,123.259863 C104.334755,123.857794 103.81704,124.920568 103.776751,126.448185 L103.776751,126.448185 L105.807323,126.448185 C105.887901,125.80782 106.061145,125.325618 106.327053,125.001578 C106.802465,124.41522 107.608247,124.122041 108.744401,124.122041 C109.727456,124.122041 110.482877,124.282132 111.010665,124.602315 C111.538452,124.922497 111.802346,125.437489 111.802346,126.147291 C111.802346,126.494477 111.753999,126.760652 111.657305,126.945818 C111.488091,127.285288 111.153691,127.485885 110.654106,127.547607 L110.654106,127.547607 L107.185212,127.964229 C105.96848,128.110819 104.985425,128.500438 104.236047,129.133088 C103.486669,129.765737 103.11198,130.656847 103.11198,131.806418 C103.11198,132.85569 103.492712,133.729441 104.254177,134.42767 C105.015642,135.125899 105.996682,135.475013 107.197298,135.475013 Z M107.704941,133.704366 C107.076431,133.704366 106.532528,133.530773 106.073231,133.183588 C105.613935,132.836402 105.384287,132.361915 105.384287,131.760126 C105.384287,130.965457 105.718687,130.386814 106.387487,130.024198 C106.78232,129.808171 107.37457,129.650009 108.164237,129.549711 L108.164237,129.549711 L109.481692,129.387691 C109.884583,129.341399 110.295533,129.264247 110.71454,129.156234 C111.133547,129.04822 111.476004,128.913204 111.741913,128.751184 L111.741913,128.751184 L111.741913,130.429248 C111.741913,131.709977 111.137576,132.631948 109.928902,133.19516 C109.211755,133.534631 108.470435,133.704366 107.704941,133.704366 Z M120.528973,135.255129 C120.843228,135.255129 121.135324,135.239698 121.405261,135.208837 C121.675198,135.177977 121.935063,135.127827 122.184856,135.05839 L122.184856,135.05839 L122.184856,133.415045 C122.023699,133.430475 121.882688,133.440119 121.76182,133.443977 C121.640953,133.447834 121.528143,133.449763 121.423391,133.449763 C121.028558,133.449763 120.746534,133.407329 120.57732,133.322462 C120.271122,133.175872 120.118023,132.886551 120.118023,132.454498 L120.118023,132.454498 L120.118023,124.365071 L122.184856,124.365071 L122.184856,122.663861 L120.118023,122.663861 L120.118023,119.203577 L117.918237,119.203577 L117.918237,122.663861 L116.165659,122.663861 L116.165659,124.365071 L117.918237,124.365071 L117.918237,132.570226 C117.918237,133.364896 118.099538,134.011047 118.46214,134.50868 C118.824742,135.006312 119.513686,135.255129 120.528973,135.255129 Z M127.84145,135.475013 C128.840621,135.475013 129.755184,135.270559 130.58514,134.861652 C131.415097,134.452744 132.051665,133.970542 132.494845,133.415045 C132.567366,133.90882 132.692262,134.290724 132.869534,134.560757 C133.207963,135.069963 133.751866,135.324566 134.501244,135.324566 C134.807442,135.324566 135.049176,135.312993 135.226449,135.289847 C135.403721,135.266702 135.661571,135.208837 136,135.116255 L136,135.116255 L136,133.577065 C135.863017,133.60021 135.734092,133.61757 135.613224,133.629143 C135.492357,133.640715 135.383576,133.646502 135.286882,133.646502 C134.988743,133.646502 134.79334,133.580922 134.700675,133.449763 C134.60801,133.318604 134.561678,133.145011 134.561678,132.928985 L134.561678,132.928985 L134.561678,125.788532 C134.561678,124.615816 134.090295,123.75171 133.147529,123.196213 C132.196706,122.640715 130.959829,122.362967 129.4369,122.362967 C128.123474,122.362967 126.969191,122.661932 125.974049,123.259863 C124.978907,123.857794 124.461192,124.920568 124.420903,126.448185 L124.420903,126.448185 L126.451475,126.448185 C126.532054,125.80782 126.705297,125.325618 126.971205,125.001578 C127.446617,124.41522 128.2524,124.122041 129.388553,124.122041 C130.371608,124.122041 131.127029,124.282132 131.654817,124.602315 C132.182605,124.922497 132.446498,125.437489 132.446498,126.147291 C132.446498,126.494477 132.398151,126.760652 132.301458,126.945818 C132.132243,127.285288 131.797843,127.485885 131.298258,127.547607 L131.298258,127.547607 L127.829364,127.964229 C126.612632,128.110819 125.629577,128.500438 124.880199,129.133088 C124.130821,129.765737 123.756132,130.656847 123.756132,131.806418 C123.756132,132.85569 124.136865,133.729441 124.898329,134.42767 C125.659794,135.125899 126.640834,135.475013 127.84145,135.475013 Z M128.349093,133.704366 C127.720583,133.704366 127.17668,133.530773 126.717384,133.183588 C126.258087,132.836402 126.028439,132.361915 126.028439,131.760126 C126.028439,130.965457 126.362839,130.386814 127.031639,130.024198 C127.426472,129.808171 128.018723,129.650009 128.80839,129.549711 L128.80839,129.549711 L130.125844,129.387691 C130.528736,129.341399 130.939685,129.264247 131.358692,129.156234 C131.777699,129.04822 132.120156,128.913204 132.386065,128.751184 L132.386065,128.751184 L132.386065,130.429248 C132.386065,131.709977 131.781728,132.631948 130.573054,133.19516 C129.855907,133.534631 129.114587,133.704366 128.349093,133.704366 Z"
          id="path-1"></path>
    <path d="M62.3614458,156 C64.1445783,156 65.4718876,155.586755 66.3433735,154.760265 C67.2148594,153.933775 67.6506024,152.952318 67.6506024,151.815894 C67.6506024,150.639735 67.2289157,149.777483 66.3855422,149.229139 C65.8554217,148.87947 64.811245,148.517881 63.253012,148.144371 L63.253012,148.144371 L61.8192771,147.798675 C61.1927711,147.647682 60.7188755,147.472848 60.3975904,147.274172 C59.8433735,146.940397 59.5662651,146.495364 59.5662651,145.939073 C59.5662651,145.430464 59.7771084,145.021192 60.1987952,144.711258 C60.6204819,144.401325 61.2409639,144.246358 62.060241,144.246358 C63.2891566,144.246358 64.1526104,144.528477 64.6506024,145.092715 C64.9558233,145.490066 65.1285141,145.931126 65.1686747,146.415894 L65.1686747,146.415894 L67.2168675,146.415894 C67.2329317,145.589404 66.9718876,144.818543 66.4337349,144.103311 C65.5742972,142.974834 64.1726908,142.410596 62.2289157,142.410596 C60.7429719,142.410596 59.560241,142.784106 58.6807229,143.531126 C57.8012048,144.278146 57.3614458,145.255629 57.3614458,146.463576 C57.3614458,147.488742 57.8273092,148.291391 58.7590361,148.871523 C59.2811245,149.205298 60.0923695,149.507285 61.1927711,149.777483 L61.1927711,149.777483 L62.9156627,150.206623 C63.8393574,150.437086 64.4578313,150.639735 64.7710843,150.81457 C65.2610442,151.100662 65.5060241,151.517881 65.5060241,152.066225 C65.5060241,152.789404 65.2008032,153.323841 64.5903614,153.669536 C63.9799197,154.015232 63.2730924,154.188079 62.4698795,154.188079 C61.1204819,154.188079 60.1726908,153.842384 59.626506,153.150993 C59.3293173,152.769536 59.1485944,152.221192 59.0843373,151.50596 L59.0843373,151.50596 L57,151.50596 C57.0562249,152.777483 57.4839357,153.844371 58.2831325,154.706623 C59.0823293,155.568874 60.4417671,156 62.3614458,156 Z M72.3373494,140.431788 L72.3373494,138 L70.1325301,138 L70.1325301,140.431788 L72.3373494,140.431788 Z M72.3373494,155.511258 L72.3373494,142.803974 L70.1325301,142.803974 L70.1325301,155.511258 L72.3373494,155.511258 Z M80.2771084,155.880795 C81.7791165,155.880795 83.0120482,155.489404 83.9759036,154.706623 C84.939759,153.923841 85.5421687,152.686093 85.7831325,150.993377 L85.7831325,150.993377 L83.6746988,150.993377 C83.4738956,151.939073 83.1104418,152.684106 82.5843373,153.228477 C82.0582329,153.772848 81.3453815,154.045033 80.4457831,154.045033 C79.2730924,154.045033 78.4136546,153.607947 77.8674699,152.733775 C77.3212851,151.859603 77.0481928,150.782781 77.0481928,149.503311 C77.0481928,148.231788 77.2409639,147.162914 77.626506,146.296689 C78.2208835,144.961589 79.2088353,144.29404 80.5903614,144.29404 C81.6024096,144.29404 82.3373494,144.554305 82.7951807,145.074834 C83.253012,145.595364 83.5461847,146.249007 83.6746988,147.035762 L83.6746988,147.035762 L85.7831325,147.035762 C85.5983936,145.327152 85.0502008,144.123179 84.1385542,143.423841 C83.2269076,142.724503 82.0441767,142.374834 80.5903614,142.374834 C78.8875502,142.374834 77.4859438,142.998675 76.3855422,144.246358 C75.2851406,145.49404 74.7349398,147.238411 74.7349398,149.47947 C74.7349398,151.307285 75.2369478,152.831126 76.2409639,154.050993 C77.2449799,155.270861 78.5903614,155.880795 80.2771084,155.880795 Z M90.1566265,140.431788 L90.1566265,138 L87.9518072,138 L87.9518072,140.431788 L90.1566265,140.431788 Z M90.1566265,155.511258 L90.1566265,142.803974 L87.9518072,142.803974 L87.9518072,155.511258 L90.1566265,155.511258 Z M95.6626506,155.511258 L95.6626506,138 L93.4939759,138 L93.4939759,155.511258 L95.6626506,155.511258 Z M101.120482,140.431788 L101.120482,138 L98.9156627,138 L98.9156627,140.431788 L101.120482,140.431788 Z M101.120482,155.511258 L101.120482,142.803974 L98.9156627,142.803974 L98.9156627,155.511258 L101.120482,155.511258 Z M107.86747,155.940397 C108.863454,155.940397 109.7751,155.729801 110.60241,155.308609 C111.429719,154.887417 112.064257,154.390728 112.506024,153.818543 C112.578313,154.327152 112.702811,154.72053 112.879518,154.998675 C113.216867,155.523179 113.759036,155.78543 114.506024,155.78543 C114.811245,155.78543 115.052209,155.77351 115.228916,155.749669 C115.405622,155.725828 115.662651,155.666225 116,155.570861 L116,155.570861 L116,153.98543 C115.863454,154.009272 115.73494,154.027152 115.614458,154.039073 C115.493976,154.050993 115.385542,154.056954 115.289157,154.056954 C114.991968,154.056954 114.797189,153.989404 114.704819,153.854305 C114.61245,153.719205 114.566265,153.540397 114.566265,153.317881 L114.566265,153.317881 L114.566265,145.962914 C114.566265,144.754967 114.096386,143.864901 113.156627,143.292715 C112.208835,142.72053 110.975904,142.434437 109.457831,142.434437 C108.148594,142.434437 106.997992,142.742384 106.006024,143.358278 C105.014056,143.974172 104.497992,145.068874 104.457831,146.642384 L104.457831,146.642384 L106.481928,146.642384 C106.562249,145.982781 106.73494,145.486093 107,145.152318 C107.473896,144.548344 108.277108,144.246358 109.409639,144.246358 C110.389558,144.246358 111.14257,144.411258 111.668675,144.74106 C112.194779,145.070861 112.457831,145.601325 112.457831,146.33245 C112.457831,146.690066 112.409639,146.964238 112.313253,147.154967 C112.144578,147.504636 111.811245,147.711258 111.313253,147.774834 L111.313253,147.774834 L107.855422,148.203974 C106.64257,148.354967 105.662651,148.756291 104.915663,149.407947 C104.168675,150.059603 103.795181,150.977483 103.795181,152.161589 C103.795181,153.242384 104.174699,154.142384 104.933735,154.861589 C105.692771,155.580795 106.670683,155.940397 107.86747,155.940397 Z M108.373494,154.116556 C107.746988,154.116556 107.204819,153.937748 106.746988,153.580132 C106.289157,153.222517 106.060241,152.733775 106.060241,152.113907 C106.060241,151.295364 106.393574,150.699338 107.060241,150.325828 C107.453815,150.103311 108.044177,149.940397 108.831325,149.837086 L108.831325,149.837086 L110.144578,149.670199 C110.546185,149.622517 110.955823,149.543046 111.373494,149.431788 C111.791165,149.32053 112.13253,149.181457 112.39759,149.01457 L112.39759,149.01457 L112.39759,150.743046 C112.39759,152.062252 111.795181,153.011921 110.590361,153.592053 C109.875502,153.941722 109.136546,154.116556 108.373494,154.116556 Z"
          id="path-2"></path>
  </defs>
  <g id="Page-1" stroke="none" stroke-width="1" fill="none" fill-rule="evenodd">
    <g id="Group-3" fill="#000000" fill-rule="nonzero">
      <path d="M86,7.97514593 L165.120002,53.7434519 L165.120002,145.256548 L86,191.024854 L6.87999848,145.256548 L6.87999848,53.7434519 L86,7.97514593 Z M86,0 L0,49.7496517 L0,149.250339 L86,199 L172,149.250339 L172,49.7496517 L86,0 Z"
            id="path4241"></path>
      <polygon id="polygon4499" points="43.9522812 73.0072253 43.9522812 84 47 84 47 70 42 70 42 73.0072253"></polygon>
      <polygon id="polygon4501" points="72 70 67 70 67 73.0072253 68.9514751 73.0072253 68.9514751 84 72 84"></polygon>
      <polygon id="polygon4503"
               points="59 86 54 86 54 89.0098582 55.9514751 89.0098582 55.9514751 100 59 100"></polygon>
      <polygon id="polygon4505"
               points="59 103 54 103 54 106.009858 55.9514751 106.009858 55.9514751 117 59 117"></polygon>
      <polygon id="polygon4507"
               points="72 86 67 86 67 89.0098582 68.9514751 89.0098582 68.9514751 100 72 100"></polygon>
      <path d="M59.1021184,69.4684755 C58.4674995,69.1756783 57.7441608,69 57.0543183,69 C56.3662864,69 55.6782546,69.1571345 55.0255296,69.4313879 C52.9967409,70.3088034 52,72.1631856 52,74.4889713 L52,78.5110287 C52,80.8172946 53.014847,82.6531329 55.0074235,83.5510443 C55.6592432,83.8457935 56.347275,84 57.0543183,84 C57.8156799,84 58.5761362,83.8223697 59.264168,83.4739411 C61.1490132,82.53699 62,80.6796799 62,78.5110287 L62,74.4889713 C62,72.2236971 61.0584827,70.3878587 59.1021184,69.4684755 L59.1021184,69.4684755 Z M58.5761362,78.6115557 C58.5761362,79.7427289 58.2321202,80.7567831 57,80.7567831 C55.8221981,80.7567831 55.4238638,79.7222331 55.4238638,78.6115557 L55.4238638,74.3923482 C55.4238638,73.2972867 55.8221981,72.2432169 57,72.2432169 C58.2321202,72.2432169 58.5761362,73.2582471 58.5761362,74.3923482 L58.5761362,78.6115557 Z"
            id="path4509"></path>
      <polygon id="polygon4511"
               points="129 86 124 86 124 89.0098582 125.952458 89.0098582 125.952458 100 129 100"></polygon>
      <polygon id="polygon4513"
               points="129 103 124 103 124 106.009858 125.952458 106.009858 125.952458 117 129 117"></polygon>
      <path d="M128.101856,69.4684755 C127.468085,69.1756783 126.74287,69 126.054776,69 C125.366682,69 124.677682,69.1571345 124.024898,69.4313879 C121.995926,70.3088034 121,72.1631856 121,74.4889713 L121,78.5110287 C121,80.8172946 122.014939,82.6531329 124.007696,83.5510443 C124.659574,83.8457935 125.346763,84 126.054776,84 C126.815301,84 127.575826,83.8223697 128.264826,83.4739411 C130.149842,82.53699 131,80.6796799 131,78.5110287 L131,74.4889713 C131,72.2236971 130.057492,70.3878587 128.101856,69.4684755 L128.101856,69.4684755 Z M127.575826,78.6115557 C127.575826,79.7427289 127.231779,80.7567831 125.999547,80.7567831 C124.821639,80.7567831 124.425079,79.7222331 124.425079,78.6115557 L124.425079,74.3923482 C124.425079,73.2972867 124.821639,72.2432169 125.999547,72.2432169 C127.231779,72.2432169 127.575826,73.2582471 127.575826,74.3923482 L127.575826,78.6115557 Z"
            id="path4515"></path>
      <polygon id="polygon4517"
               points="103.950984 89.0098582 103.950984 100 107 100 107 86 102 86 102 89.0098582"></polygon>
      <polygon id="polygon4519"
               points="118 86 113 86 113 89.0098582 114.951161 89.0098582 114.951161 100 118 100"></polygon>
      <path d="M107.103016,102.4675 C106.468398,102.176654 105.74506,102 105.056124,102 C104.366282,102 103.678251,102.155183 103.027337,102.429436 C100.99855,103.307827 100,105.163186 100,107.486043 L100,111.511029 C100,113.814367 101.015751,115.653133 103.008326,116.551044 C103.659239,116.842866 104.348176,117 105.056124,117 C105.817484,117 106.577035,116.82237 107.26416,116.471013 C109.149004,115.534062 110,113.67968 110,111.511029 L110,107.486043 C110.0018,105.221745 109.060284,103.388835 107.103016,102.4675 Z M106.577035,111.608628 C106.577035,112.742729 106.233924,113.756783 105.0009,113.756783 C103.824005,113.756783 103.426576,112.722233 103.426576,111.608628 L103.426576,107.392348 C103.426576,106.297287 103.824005,105.241265 105.0009,105.241265 C106.233924,105.241265 106.577035,106.259223 106.577035,107.392348 L106.577035,111.608628 L106.577035,111.608628 Z"
            id="path4521"></path>
      <path d="M47.1027596,85.4675908 C46.4680834,85.1737602 45.743774,85 45.0538692,85 C44.3657752,85 43.6776813,85.1542366 43.0267081,85.4285435 C40.9968309,86.3071066 40,88.162827 40,90.490043 L40,94.5128856 C40,96.8166732 41.0149386,98.65287 43.007695,99.5538852 C43.6604789,99.8447872 44.3485729,100 45.0538692,100 C45.8162049,100 46.5767298,99.8252636 47.2639184,99.4738383 C49.1489338,98.5357282 50,96.6819602 50,94.5128856 L50,90.490043 C50.0009028,88.2213979 49.0583951,86.3861773 47.1027596,85.4675908 Z M46.5758245,94.6095275 C46.5758245,95.7438501 46.2317775,96.7581023 44.999546,96.7581023 C43.8225431,96.7581023 43.4241729,95.7213979 43.4241729,94.6095275 L43.4241729,90.3894963 C43.4241729,89.2971496 43.8225431,88.2438501 44.999546,88.2438501 C46.2317775,88.2438501 46.5758245,89.2581023 46.5758245,90.3894963 L46.5758245,94.6095275 L46.5758245,94.6095275 Z"
            id="path4523"></path>
      <polygon id="polygon4525" points="78.9522812 73.0072253 78.9522812 84 82 84 82 70 77 70 77 73.0072253"></polygon>
      <polygon id="polygon4527"
               points="95 86 90 86 90 89.0098582 91.9522812 89.0098582 91.9522812 100 95 100"></polygon>
      <polygon id="polygon4529"
               points="95 103 90 103 90 106.009858 91.9522812 106.009858 91.9522812 117 95 117"></polygon>
      <path d="M81.1027596,85.4675908 C80.467178,85.1737602 79.743774,85 79.0538692,85 C78.3657752,85 77.6776813,85.1542366 77.0258027,85.4285435 C74.9959255,86.3071066 74,88.162827 74,90.490043 L74,94.5128856 C74,96.8166732 75.0149386,98.65287 77.007695,99.5538852 C77.6604789,99.8447872 78.3485729,100 79.0538692,100 C79.8162049,100 80.5767298,99.8252636 81.2639184,99.4738383 C83.1489338,98.5357282 84,96.6819602 84,94.5128856 L84,90.490043 C84.0009028,88.2213979 83.0583951,86.3861773 81.1027596,85.4675908 Z M80.5767298,94.6095275 C80.5767298,95.7438501 80.2326829,96.7581023 79.0004514,96.7581023 C77.8234485,96.7581023 77.4250783,95.7213979 77.4250783,94.6095275 L77.4250783,90.3894963 C77.4250783,89.2971496 77.8234485,88.2438501 79.0004514,88.2438501 C80.2326829,88.2438501 80.5767298,89.2581023 80.5767298,90.3894963 L80.5767298,94.6095275 Z"
            id="path4531"></path>
      <path d="M115.255595,67.3785269 L116.323031,67.3794597 L127.226997,67.3990473 L127.625293,67.0007662 C130.330901,64.1988074 132,60.3978813 132,56.2154635 C132,48.5343283 126.383544,42.1366468 119.027702,40.8671841 C119.01177,40.8643859 118.996775,40.8615877 118.979906,40.8606549 C117.679115,33.5628768 111.26794,28 103.569094,28 C96.31634,28 90.2031844,32.9360738 88.4328715,39.6098471 C85.7469441,37.4570772 82.3384592,36.1642959 78.6310173,36.1642959 C70.8347055,36.1642959 64.3523051,41.8670842 63.1686603,49.3019754 C60.7170252,47.7135148 57.7939941,46.7863686 54.6563511,46.7863686 C46.0240842,46.7863686 39,53.7772744 39,62.3678337 C39,64.0598288 39.2755278,65.6902628 39.7797249,67.215297 L39.7806621,67.2320863 L39.7862851,67.2320863 L45.2078097,67.2414138 L64.086149,67.2787235 L69.5076737,67.2889836 L76.9319293,67.3048403 L77.7856905,67.305773 C78.064967,67.3206969 78.3479921,67.3281588 78.6310173,67.3281588 L78.6310173,67.305773 L80.328231,67.309504 C80.3413513,67.3067058 80.3554089,67.305773 80.3694664,67.3039075 L86.0965083,67.3188314 C86.620386,68.6554515 87.3298231,69.8969319 88.1845216,71.0264832 C87.1217716,71.9788134 86.587585,73.3266265 86.587585,74.9104234 L86.587585,78.7542556 C86.587585,80.9583264 87.6381519,82.7128152 89.7008616,83.5709384 C90.3756235,83.8526267 91.0869351,84 91.8198015,84 C92.6079609,84 93.3961203,83.8302408 94.1074319,83.4972517 C96.0576813,82.6018188 96.9386204,80.8268097 96.9386204,78.7542556 L96.9386204,76.8066891 C97.6789842,76.9885739 98.4399657,77.1144942 99.2168791,77.1872481 L99.2168791,78.7542556 C99.2168791,80.9583264 100.268383,82.7128152 102.331093,83.5709384 C103.004918,83.8526267 103.718103,84 104.45097,84 C105.239129,84 106.025414,83.8302408 106.736726,83.4972517 C108.687913,82.6018188 109.568852,80.8268097 109.568852,78.7542556 L109.568852,74.5028149 C110.268917,74.020587 110.923061,73.4795963 111.535033,72.8938339 L114.565839,72.8938339 L114.565839,83.7397648 L118.11115,83.7397648 L118.11115,69.9277124 L113.949181,69.9277124 C114.45619,69.1218228 114.901345,68.2739598 115.255595,67.3785269 Z M67.1975513,62.4172691 L65.303532,62.4144708 L44.0101073,62.3724974 C44.0101073,62.3715647 44.0101073,62.3687664 44.0101073,62.3659682 C44.0101073,56.5223359 48.7868595,51.7681468 54.6572883,51.7681468 C58.6805563,51.7681468 62.1883811,54.0029981 63.9980551,57.286252 C63.9896206,57.2629335 63.9811861,57.2386822 63.9736887,57.2134981 C64.7103038,59.1629301 65.8302212,60.9276791 67.2415982,62.4182018 L67.1975513,62.4182018 L67.1975513,62.4172691 Z M93.3951832,78.8503281 C93.3951832,79.9313768 93.0381216,80.9004964 91.7635713,80.9004964 C90.544314,80.9004964 90.1319595,79.9117892 90.1319595,78.8503281 L90.1319595,74.8180819 C90.1319595,74.3181318 90.2294251,73.8303075 90.4618431,73.4534795 C91.357777,74.2257903 92.3408676,74.8992305 93.3961203,75.4551451 L93.3961203,78.8503281 L93.3951832,78.8503281 Z M106.024477,78.8503281 C106.024477,79.9313768 105.66929,80.9004964 104.392865,80.9004964 C103.174545,80.9004964 102.763128,79.9117892 102.763128,78.8503281 L102.763128,77.1172924 C103.893354,76.9680536 104.984219,76.6966255 106.024477,76.3197975 L106.024477,78.8503281 L106.024477,78.8503281 Z M100.689172,72.2735601 C95.0802136,72.2735601 90.477775,67.9391052 90.0729178,62.4601752 C90.0729178,62.4601752 90.0729178,62.4601752 90.0729178,62.457377 C90.0701063,62.4377894 90.0672948,62.4200673 90.0672948,62.4004797 L85.0496901,62.3902195 C85.0506273,62.4088744 85.0525016,62.4293947 85.054376,62.4499151 L78.0808989,62.4340584 C72.464443,62.1430427 67.9838363,57.4009794 67.9838363,51.7410973 C67.9847735,45.9030614 72.7605885,41.1507379 78.6328916,41.1507379 C84.5042576,41.1507379 89.2800726,45.9021287 89.2800726,51.7466938 L94.2892427,51.7466938 C94.2892427,51.4556781 94.2779967,51.1674606 94.2639391,50.8820414 C94.2592533,50.79996 94.2489444,50.7160132 94.2442586,50.6357973 C94.2292639,50.4277957 94.213332,50.2197941 94.1889656,50.013658 C94.1795939,49.9362404 94.169285,49.861621 94.1599133,49.7860688 C94.1308611,49.5594124 94.0999345,49.3355541 94.0615106,49.1135614 C94.0549504,49.0743862 94.0483902,49.0361438 94.0427672,48.9979013 C93.8993803,48.2209267 93.7035119,47.4616743 93.4504761,46.7257404 L92.9265985,43.5805323 C92.9265985,37.7369 97.7014763,32.9827109 103.572842,32.9827109 C108.522971,32.9827109 112.6915,36.3620374 113.881705,40.9240814 C113.895763,40.9212832 113.911694,40.9194177 113.928564,40.9175522 C114.134741,41.7355675 114.245327,42.5946234 114.245327,43.4779306 C114.245327,44.3043406 114.146924,45.1111629 113.964176,45.8834738 C114.727969,45.7109164 115.527374,45.6148439 116.34646,45.6148439 C117.280818,45.6148439 118.188935,45.7361005 119.052068,45.9636897 C123.61702,47.1585329 126.992704,51.2999101 126.992704,56.2117326 C126.992704,58.5753023 126.210168,60.7607182 124.889696,62.5263999 L111.289495,62.5096106 C111.293243,62.5198707 111.300741,62.5301309 111.303552,62.5403911 C111.217333,63.6951264 110.949302,64.7230088 110.519141,65.7462274 C108.912833,69.5732703 105.110737,72.2735601 100.689172,72.2735601 Z"
            id="path4533"></path>
      <g id="opendata">
        <use xlink:href="#path-1"></use>
        <use xlink:href="#path-1"></use>
      </g>
      <g id="sicilia">
        <use xlink:href="#path-2"></use>
        <use xlink:href="#path-2"></use>
      </g>
    </g>
  </g>
</svg>
