<svg xmlns="http://www.w3.org/2000/svg" width="157.069" height="144.542" viewBox="0 0 157.069 144.542">
  <g id="card-2" transform="translate(0 0)">
    <path id="Tracciato_289" data-name="Tracciato 289" d="M481.164,349.832H409.511a6.424,6.424,0,0,1-6.417-6.419V315.87c-.148.169-.3.336-.464.5v27.045a6.889,6.889,0,0,0,6.88,6.883h71.855C481.3,350.143,481.229,349.987,481.164,349.832Zm-78.07-101.805a6.424,6.424,0,0,1,6.417-6.419h23.874c-.044-.155-.086-.308-.125-.463H409.511a6.889,6.889,0,0,0-6.88,6.883v42.224c.16.162.313.329.464.5Zm96.211,5.414-14.971-11.858a2.024,2.024,0,0,0-1.256-.438H469.756c-.037.155-.079.311-.123.463h13.446a1.575,1.575,0,0,1,.969.336L499.018,253.8a1.193,1.193,0,0,1,.454.941v69.02c.155,0,.311.016.463.028V254.745a1.654,1.654,0,0,0-.63-1.3Z" transform="translate(-369.845 -217.274)" fill="#3f3d56"/>
    <path id="Tracciato_290" data-name="Tracciato 290" d="M767.869,255.557h-12.08a3.325,3.325,0,0,1-3.325-3.325V243.31a.208.208,0,0,1,.337-.163L768,255.186a.208.208,0,0,1-.129.371Z" transform="translate(-638.607 -218.779)" fill="#e6e6e6"/>
    <path id="Tracciato_291" data-name="Tracciato 291" d="M767.1,255.02h-12.08a3.561,3.561,0,0,1-3.557-3.557v-8.922a.44.44,0,0,1,.713-.345l15.2,12.039a.439.439,0,0,1-.273.784Zm0-.464Zm-15.173-11.966v8.873a3.1,3.1,0,0,0,3.093,3.093h12.011Z" transform="translate(-637.838 -218.01)" fill="#3f3d56"/>
    <path id="Tracciato_292" data-name="Tracciato 292" d="M592.147,352.182H556.61a1.663,1.663,0,0,1,0-3.325h35.537a1.663,1.663,0,1,1,0,3.325Z" transform="translate(-486.864 -300.025)" fill="#ccc"/>
    <path id="Tracciato_293" data-name="Tracciato 293" d="M599.005,376.4H556.61a1.663,1.663,0,0,1,0-3.325h42.395a1.663,1.663,0,1,1,0,3.325Z" transform="translate(-486.864 -318.627)" fill="#ccc"/>
    <path id="Tracciato_294" data-name="Tracciato 294" d="M592.147,460.689H556.61a1.663,1.663,0,0,1,0-3.325h35.537a1.663,1.663,0,0,1,0,3.325Z" transform="translate(-486.864 -383.387)" fill="#ccc"/>
    <path id="Tracciato_295" data-name="Tracciato 295" d="M599.005,484.9H556.61a1.663,1.663,0,0,1,0-3.325h42.395a1.663,1.663,0,1,1,0,3.325Z" transform="translate(-486.864 -401.988)" fill="#ccc"/>
    <path id="Tracciato_296" data-name="Tracciato 296" d="M592.147,569.2H556.611a1.663,1.663,0,0,1,0-3.325h35.536a1.663,1.663,0,0,1,0,3.325Z" transform="translate(-486.864 -466.748)" fill="#ccc"/>
    <path id="Tracciato_297" data-name="Tracciato 297" d="M599.005,593.408H556.611a1.663,1.663,0,0,1,0-3.325h42.395a1.663,1.663,0,0,1,0,3.325Z" transform="translate(-486.864 -485.349)" fill="#ccc"/>
    <circle id="Ellipse_44" data-name="Ellipse 44" cx="5.876" cy="5.876" r="5.876" transform="translate(49.072 47.423)" fill="#00a47f"/>
    <path id="Path_395" data-name="Path 395" d="M489.141,362.994a.609.609,0,0,1-.367-.122l-.007,0-1.381-1.056a.614.614,0,0,1,.747-.974l.894.686,2.114-2.758a.613.613,0,0,1,.86-.114h0l-.013.018.013-.018a.614.614,0,0,1,.113.86l-2.486,3.242a.614.614,0,0,1-.488.239Z" transform="translate(-434.775 -307.453)" fill="#fff"/>
    <circle id="Ellipse_44-2" data-name="Ellipse 44" cx="5.876" cy="5.876" r="5.876" transform="translate(49.072 72.569)" fill="#e6e6e6"/>
    <path id="Path_395-2" data-name="Path 395" d="M489.141,471.5a.609.609,0,0,1-.367-.122l-.007,0-1.381-1.056a.614.614,0,1,1,.747-.974l.894.686,2.114-2.758a.613.613,0,0,1,.86-.114h0l-.013.018.013-.018a.614.614,0,0,1,.113.86l-2.486,3.242a.614.614,0,0,1-.488.239Z" transform="translate(-434.775 -390.814)" fill="#fff"/>
    <circle id="Ellipse_44-3" data-name="Ellipse 44" cx="5.876" cy="5.876" r="5.876" transform="translate(49.072 97.715)" fill="#e6e6e6"/>
    <path id="Path_395-3" data-name="Path 395" d="M489.141,580.007a.609.609,0,0,1-.367-.122l-.007,0-1.381-1.056a.614.614,0,1,1,.747-.974l.894.686,2.114-2.758a.614.614,0,0,1,.86-.114h0l-.013.018.013-.018a.614.614,0,0,1,.113.86l-2.486,3.242a.614.614,0,0,1-.488.239Z" transform="translate(-434.775 -474.175)" fill="#fff"/>
    <path id="Tracciato_298" data-name="Tracciato 298" d="M793.535,736.06q-.5.26-1.012.492-.468.212-.952.4l-.357.135a19.145,19.145,0,0,1-2.909.8q-.735.144-1.489.227-.622.071-1.258.1c-.3.015-.6.021-.907.021a19.226,19.226,0,0,1-3.585-.336c-.308-.056-.61-.122-.911-.195a18.986,18.986,0,0,1-4.208-1.553c-.12-.06-.24-.124-.359-.186-.178-.094-.351-.193-.524-.3.083-.115.173-.229.265-.34a11.345,11.345,0,0,1,16.871-.877,11.617,11.617,0,0,1,1.082,1.253C793.37,735.822,793.453,735.94,793.535,736.06Z" transform="translate(-655.969 -593.694)" fill="#00a47f"/>
    <circle id="Ellisse_97" data-name="Ellisse 97" cx="9.393" cy="9.393" r="9.393" transform="translate(119.716 114.184)" fill="#2f2e41"/>
    <circle id="Ellisse_98" data-name="Ellisse 98" cx="6.991" cy="6.991" r="6.991" transform="translate(118.768 124.068) rotate(-28.663)" fill="#a0616a"/>
    <path id="Tracciato_299" data-name="Tracciato 299" d="M801.095,654.126a9.508,9.508,0,0,1-5.434,1.679,5.827,5.827,0,0,0,2.309.95,19.172,19.172,0,0,1-7.831.044,5.068,5.068,0,0,1-1.639-.563,2.074,2.074,0,0,1-1.012-1.353,2.8,2.8,0,0,1,1.388-2.474,10.237,10.237,0,0,1,8.6-1.719,4.71,4.71,0,0,1,2.548,1.44,2.321,2.321,0,0,1,.214,2.756Z" transform="translate(-665.495 -531.674)" fill="#2f2e41"/>
    <path id="Tracciato_300" data-name="Tracciato 300" d="M754.021,595.755c-.153-.012-.308-.021-.463-.028-.313-.016-.628-.023-.946-.023a19.251,19.251,0,0,0-17.826,26.521c.063.155.128.311.2.464a19.391,19.391,0,0,0,7.61,8.7l.123.072c.1.063.206.123.308.178.174.1.348.2.524.3l.359.185a18.95,18.95,0,0,0,4.208,1.553c.3.074.6.139.911.195a19.22,19.22,0,0,0,3.585.336c.3,0,.6-.007.909-.021.422-.019.841-.053,1.256-.1q.754-.083,1.49-.227a19.29,19.29,0,0,0,2.908-.8c.121-.046.241-.09.357-.137.324-.123.64-.255.952-.4q.514-.233,1.013-.494a19.437,19.437,0,0,0,7.923-7.694q.013-.026.028-.051a19.246,19.246,0,0,0-15.427-28.532Zm17.084,22.734a18.715,18.715,0,0,1-2.009,5.548c-.016.03-.032.06-.049.088a18.859,18.859,0,0,1-7.8,7.555q-.494.257-1,.482c-.28.125-.568.246-.857.357-.121.046-.246.1-.369.137a18.3,18.3,0,0,1-2.51.719,17.845,17.845,0,0,1-1.914.3c-.4.044-.8.074-1.2.088-.26.012-.519.019-.781.019a18.626,18.626,0,0,1-3.469-.324,17.907,17.907,0,0,1-2.06-.505,18.8,18.8,0,0,1-2.992-1.212c-.111-.058-.222-.116-.331-.176-.158-.083-.315-.169-.468-.26-.116-.065-.232-.134-.345-.2-.067-.039-.132-.079-.2-.12a18.951,18.951,0,0,1-7.3-8.294c-.07-.153-.137-.308-.2-.464a18.824,18.824,0,0,1,17.362-26.092c.318,0,.633.007.945.026.155,0,.311.016.464.028a18.839,18.839,0,0,1,17.084,22.3Z" transform="translate(-623.931 -489.667)" fill="#3f3d56"/>
    <path id="Tracciato_301" data-name="Tracciato 301" d="M783.2,626.522a1.881,1.881,0,0,0-2.421-1.4,3.045,3.045,0,0,0-1.889,2.394,3.435,3.435,0,0,0,.463,2.593,2.363,2.363,0,0,0,2.342,1.015,2.717,2.717,0,0,0,1.9-2.208,7.982,7.982,0,0,0-.2-3.062Z" transform="translate(-658.846 -512.208)" fill="#2f2e41"/>
    <path id="Tracciato_302" data-name="Tracciato 302" d="M845.025,633.073a1.881,1.881,0,0,0-2.421-1.4,3.045,3.045,0,0,0-1.888,2.394,3.435,3.435,0,0,0,.463,2.593,2.363,2.363,0,0,0,2.342,1.015,2.717,2.717,0,0,0,1.9-2.208,7.984,7.984,0,0,0-.2-3.062Z" transform="translate(-706.345 -517.24)" fill="#2f2e41"/>
    <path id="Tracciato_303" data-name="Tracciato 303" d="M591.441,271.314a19.053,19.053,0,0,1-20.033.319,11.577,11.577,0,0,1,2.011-2.706,11.43,11.43,0,0,1,17.949,2.261C591.392,271.229,591.417,271.271,591.441,271.314Z" transform="translate(-499.509 -236.032)" fill="#00a47f"/>
    <circle id="Ellisse_99" data-name="Ellisse 99" cx="9.455" cy="9.455" r="9.455" transform="translate(71.624 6.143)" fill="#2f2e41"/>
    <circle id="Ellisse_100" data-name="Ellisse 100" cx="7.037" cy="7.037" r="7.037" transform="translate(71.462 21.691) rotate(-61.337)" fill="#ffb8b8"/>
    <path id="Tracciato_304" data-name="Tracciato 304" d="M582.827,188.069a9.571,9.571,0,0,0,5.47,1.69,5.866,5.866,0,0,1-2.325.956,19.3,19.3,0,0,0,7.883.044,5.1,5.1,0,0,0,1.65-.567,2.089,2.089,0,0,0,1.019-1.362,2.815,2.815,0,0,0-1.4-2.491,10.305,10.305,0,0,0-8.66-1.73,4.742,4.742,0,0,0-2.565,1.449,2.336,2.336,0,0,0-.216,2.775Z" transform="translate(-508.282 -173.604)" fill="#2f2e41"/>
    <path id="Tracciato_305" data-name="Tracciato 305" d="M549.694,138.144a19.275,19.275,0,0,0-19.253,19.251,19.069,19.069,0,0,0,.57,4.619c.039.155.079.311.12.463a19.251,19.251,0,0,0,37.137,0c.042-.156.081-.309.118-.464a19.265,19.265,0,0,0-18.692-23.87Zm18.252,23.87c-.037.155-.079.311-.123.463a18.819,18.819,0,0,1-36.247,0c-.044-.155-.086-.308-.125-.463a18.635,18.635,0,0,1-.582-4.619,18.823,18.823,0,1,1,37.077,4.619Z" transform="translate(-468.036 -138.144)" fill="#3f3d56"/>
    <path id="Tracciato_306" data-name="Tracciato 306" d="M322.073,559.448a19.052,19.052,0,0,1-20.032.32c.032-.063.067-.125.1-.185a11.437,11.437,0,0,1,19.819-.317c.014.019.025.039.037.058C322.024,559.362,322.05,559.406,322.073,559.448Z" transform="translate(-292.567 -457.393)" fill="#00a47f"/>
    <path id="Tracciato_307" data-name="Tracciato 307" d="M319.762,462.239a9.41,9.41,0,1,1-2.756-6.7A9.455,9.455,0,0,1,319.762,462.239Z" transform="translate(-291.653 -379.868)" fill="#2f2e41"/>
    <path id="Tracciato_308" data-name="Tracciato 308" d="M328.581,487.046a7.264,7.264,0,0,1-.373.795,7.03,7.03,0,1,1,.373-.795Z" transform="translate(-302.518 -398.8)" fill="#a0616a"/>
    <path id="Tracciato_309" data-name="Tracciato 309" d="M294.407,432.422c-.148-.162-.3-.322-.463-.477a19.238,19.238,0,1,0,0,27.334c.158-.155.313-.313.463-.475A19.236,19.236,0,0,0,294.407,432.422Zm-.463,26.247a18.889,18.889,0,0,1-3.388,2.779l-.007,0a18.841,18.841,0,0,1-19.807.315s0,0,0,0a18.822,18.822,0,1,1,23.207-29.214c.16.162.313.329.464.5a18.816,18.816,0,0,1,0,25.121C294.259,458.34,294.1,458.507,293.943,458.669Z" transform="translate(-261.158 -359.575)" fill="#3f3d56"/>
    <path id="Tracciato_310" data-name="Tracciato 310" d="M324.5,451.575a4.979,4.979,0,0,0-4.591-2.443,9.757,9.757,0,0,0-2.774.777l-4.566,1.781c-1.182.461-2.476,1.026-2.988,2.186a4.931,4.931,0,0,0,.239,3.441l1.708,5.328a16.22,16.22,0,0,1,.968-3.52,5.45,5.45,0,0,1,2.366-2.7,7.716,7.716,0,0,1,3.916-.532c1.886.091,3.936.331,5.276,1.661a5.48,5.48,0,0,1,1.391,2.716,16.347,16.347,0,0,1,.292,3.074,25.489,25.489,0,0,0,1.946-4.173,10.323,10.323,0,0,0,.723-3.378,4.75,4.75,0,0,0-1.089-3.213,3.116,3.116,0,0,0-3.134-.986" transform="translate(-298.179 -377.055)" fill="#2f2e41"/>
    <path id="Tracciato_311" data-name="Tracciato 311" d="M311.048,345.335l-.463-.005c.005-.464.019-.934.04-1.4l.463.021C311.066,344.411,311.053,344.876,311.048,345.335Z" transform="translate(-299.13 -296.241)" fill="#e6e6e6"/>
    <path id="Tracciato_312" data-name="Tracciato 312" d="M312.1,210.159l-.461-.05c.1-.886.224-1.779.377-2.656l.457.08C312.325,208.4,312.2,209.283,312.1,210.159Zm.914-5.222-.451-.109c.21-.866.451-1.735.716-2.585l.442.138c-.262.84-.5,1.7-.708,2.556Zm1.581-5.064-.433-.167c.32-.831.672-1.664,1.045-2.473l.421.194c-.369.8-.717,1.623-1.034,2.445Zm2.223-4.819-.407-.221c.424-.783.88-1.562,1.355-2.317l.392.247c-.469.746-.92,1.517-1.34,2.291Zm2.824-4.491-.376-.271c.521-.722,1.073-1.437,1.64-2.124l.358.295c-.56.68-1.106,1.386-1.622,2.1Zm3.374-4.092-.338-.317c.609-.649,1.247-1.287,1.9-1.9l.317.338c-.643.6-1.274,1.234-1.876,1.876Zm3.868-3.628-.295-.358c.687-.566,1.4-1.118,2.123-1.639l.271.376c-.714.515-1.42,1.061-2.1,1.621Zm4.3-3.1-.247-.392c.754-.474,1.533-.929,2.315-1.353l.221.407c-.773.419-1.543.87-2.289,1.338Zm4.658-2.526-.194-.421c.808-.373,1.638-.724,2.468-1.044l.167.432c-.821.316-1.642.664-2.441,1.032Zm4.942-1.9-.138-.442c.849-.266,1.719-.507,2.585-.717l.109.45c-.856.208-1.716.446-2.556.709Zm5.152-1.251-.08-.456c.876-.154,1.769-.281,2.655-.378l.05.461c-.876.1-1.76.222-2.626.373Z" transform="translate(-299.944 -165.094)" fill="#e6e6e6"/>
    <path id="Tracciato_313" data-name="Tracciato 313" d="M482.379,172.659l-.021-.463c.464-.021.935-.034,1.4-.04l.006.463C483.3,172.625,482.838,172.639,482.379,172.659Z" transform="translate(-431.096 -164.274)" fill="#e6e6e6"/>
    <path id="Tracciato_314" data-name="Tracciato 314" d="M46.336,204.076l-.331-.325-1.6,1.634-1.513-1.713-.347.308,1.844,2.086Z" transform="translate(-32.707 -156.473)" fill="#e6e6e6"/>
    <path id="Tracciato_315" data-name="Tracciato 315" d="M219.576,30.836l-.325-.331,1.634-1.6-1.713-1.513.308-.347,2.086,1.844Z" transform="translate(-168.401 -20.779)" fill="#e6e6e6"/>
    <path id="Tracciato_316" data-name="Tracciato 316" d="M777.11,190.629q-.612-.322-1.233-.633l.207-.414q.625.313,1.241.637Z" transform="translate(-656.594 -177.661)" fill="#e6e6e6"/>
    <path id="Tracciato_317" data-name="Tracciato 317" d="M820.725,282.75l-.429-.176c.349-.851.684-1.719,1-2.58l.436.158C821.414,281.019,821.076,281.893,820.725,282.75Zm1.9-5.234-.442-.14c.278-.875.541-1.768.783-2.653l.447.122c-.243.891-.508,1.79-.788,2.671Zm1.466-5.373-.452-.1c.205-.9.394-1.807.562-2.708l.456.085c-.169.908-.359,1.825-.566,2.727Zm1.018-5.475-.459-.066c.131-.909.244-1.833.337-2.746l.461.047c-.094.919-.208,1.85-.339,2.765Zm.564-5.541-.463-.028c.055-.916.092-1.846.11-2.764l.463.009c-.018.925-.055,1.861-.11,2.783Zm.106-5.569-.463.01q-.013-.6-.038-1.208c-.021-.516-.048-1.04-.08-1.556l.463-.029c.033.52.06,1.047.081,1.567q.024.608.038,1.217Zm-.812-5.51c-.1-.913-.211-1.836-.343-2.744l.459-.067c.133.914.25,1.844.346,2.763Zm-.8-5.473c-.169-.9-.36-1.813-.566-2.708l.452-.1c.208.9.4,1.819.57,2.726Zm-1.242-5.39c-.243-.886-.507-1.779-.785-2.653l.442-.14c.28.88.546,1.779.79,2.671Zm-1.677-5.272c-.314-.863-.649-1.732-1-2.581l.429-.176c.351.855.689,1.73,1,2.6Zm-2.1-5.12c-.383-.835-.788-1.673-1.2-2.492l.413-.21c.419.824.828,1.668,1.213,2.509Zm-2.51-4.933c-.45-.8-.922-1.6-1.4-2.385l.395-.243c.486.787.961,1.6,1.414,2.4Zm-2.905-4.712c-.514-.762-1.051-1.523-1.6-2.263l.373-.275c.548.745,1.089,1.511,1.606,2.279Zm-3.282-4.459c-.575-.718-1.173-1.432-1.776-2.125l.349-.3c.607.7,1.209,1.417,1.788,2.139Zm-3.638-4.174c-.633-.668-1.287-1.331-1.946-1.971l.323-.332c.663.645,1.322,1.313,1.959,1.985Zm-3.971-3.861c-.685-.613-1.393-1.221-2.1-1.8l.295-.358c.715.588,1.427,1.2,2.117,1.817Zm-4.278-3.521c-.731-.553-1.485-1.1-2.24-1.623l.264-.381c.761.528,1.52,1.078,2.256,1.634Zm-4.546-3.153c-.773-.491-1.569-.974-2.366-1.435l.232-.4c.8.464,1.6.95,2.382,1.444Z" transform="translate(-668.714 -184.239)" fill="#e6e6e6"/>
    <path id="Tracciato_318" data-name="Tracciato 318" d="M908.366,574.891l-.417-.2q.3-.626.59-1.254l.421.193Q908.67,574.261,908.366,574.891Z" transform="translate(-758.059 -472.559)" fill="#e6e6e6"/>
    <path id="Tracciato_319" data-name="Tracciato 319" d="M514.235,51.559l.437-.154-.762-2.155,2.2-.6-.123-.447-2.685.734Z" transform="translate(-394.372 -37.031)" fill="#e6e6e6"/>
    <path id="Tracciato_320" data-name="Tracciato 320" d="M643.078,431.2l.441-.145.713,2.171,2.114-.87.176.429-2.574,1.059Z" transform="translate(-494.068 -331.157)" fill="#e6e6e6"/>
  </g>
</svg>
