<svg xmlns="http://www.w3.org/2000/svg" width="638.427" height="461.587" viewBox="0 0 638.427 461.587"><defs><style>.a{fill:#a0616a;}.b{fill:#ccc;}.c{fill:#2f2e41;}.d{opacity:0.2;}.e{fill:#3f3d56;}.f{fill:#eee8a9;}.g{fill:#00a47f;}.h{fill:#fff;}.i{fill:#ffb8b8;}.j{fill:#46bcc7;}</style></defs><g transform="translate(0 0)"><path class="a" d="M235.972,592.729a6.5,6.5,0,0,0-9.9-1.127l-20.528-10.6,1.276,11.936,19.3,8.232a6.536,6.536,0,0,0,9.858-8.445Z" transform="translate(-141.326 -265.524)"/><path class="b" d="M197.456,573.833a2.912,2.912,0,0,1-2.372.025l-19.5-8.458a29.978,29.978,0,0,1-15.167-14.673L150.168,529.09a9.371,9.371,0,0,1,14.8-11.494l18.018,33.43,16.638,12.568a2.919,2.919,0,0,1,1.026,3.181l-1.633,5.275a2.913,2.913,0,0,1-.985,1.43A2.883,2.883,0,0,1,197.456,573.833Z" transform="translate(-121.053 -241.824)"/><circle class="a" cx="15.878" cy="15.878" r="15.878" transform="translate(12.786 230.064)"/><path class="a" d="M54.288,685.925h7.925l3.771-30.57h-11.7Z" transform="translate(-19.193 -231.698)"/><path class="c" d="M0,0H24.908V9.624H9.624A9.624,9.624,0,0,1,0,0H0Z" transform="translate(58.303 461.585) rotate(179.997)"/><path class="a" d="M14.288,685.925h7.925l3.771-30.57h-11.7Z" transform="translate(-5.051 -231.698)"/><path class="c" d="M0,0H24.908V9.624H9.624A9.624,9.624,0,0,1,0,0H0Z" transform="translate(32.445 461.585) rotate(179.997)"/><path class="c" d="M115.82,723.92a2.908,2.908,0,0,1-.695-2.3L129,617.55l34.474,5.855,3.679-2.208-9.514,98.742a2.917,2.917,0,0,1-2.648,2.562l-10.439.87a2.909,2.909,0,0,1-3.146-3.066l2.7-47.025a.323.323,0,0,0-.635-.1L130.1,722.761a2.914,2.914,0,0,1-2.809,2.152h-9.287a2.908,2.908,0,0,1-2.189-.993Z" transform="translate(-109.351 -278.444)"/><path class="b" d="M140.108,585.568a2.284,2.284,0,0,0-2.919-.122l-6.892,5.361a2.907,2.907,0,0,1-4.582-1.491c-3.381-11.84-11.04-41.643-9.153-62.62,1.07-11.89,11.337-20.926,22.888-20.168,7.9.526,13.092,5.082,15.441,13.539,5.768,20.766,12.107,58.856,13.319,66.281a2.9,2.9,0,0,1-1.381,2.966,21.293,21.293,0,0,1-10.791,3.037C151.435,592.352,145.916,590.749,140.108,585.568Z" transform="translate(-109.763 -239.177)"/><path class="a" d="M144.551,624.929a6.5,6.5,0,0,0-7.1-7l-9.614-21.005-6.362,10.18,10.105,18.386a6.536,6.536,0,0,0,12.968-.562Z" transform="translate(-111.606 -271.152)"/><path class="b" d="M121.832,588.363a2.912,2.912,0,0,1-1.882-1.444l-10.123-18.688a29.979,29.979,0,0,1-2.88-20.906l5.287-23.352a9.371,9.371,0,1,1,18.742.092l-6.453,37.425,5.336,20.157a2.918,2.918,0,0,1-1.156,3.136l-4.54,3.143a2.912,2.912,0,0,1-1.657.517,2.879,2.879,0,0,1-.675-.08Z" transform="translate(-106.206 -242.063)"/><path class="d" d="M33.143,460.644l-5.818,24.565,8.4,20.687-5.818-20.04Z" transform="translate(-9.661 -162.859)"/><path class="c" d="M128.623,474.892a10.691,10.691,0,0,1-4.13-.747c-.578-.223-1.178-.406-1.755-.629-5.1-1.968-8.452-7.395-8.572-12.856a18.513,18.513,0,0,1,6.907-14.254,26.73,26.73,0,0,1,15.085-5.7c5.867-.447,12.473,1.041,15.751,5.927a5.146,5.146,0,0,1,.966,4.449,2.847,2.847,0,0,1-.8,1.232c-1.464,1.3-2.924.323-4.416.237a4.882,4.882,0,0,0-4.556,3.487,10.507,10.507,0,0,0,.164,6.071,15.165,15.165,0,0,1,.764,3.691,3.711,3.711,0,0,1-1.538,3.268c-1.282.775-2.965.326-4.248-.447a29.5,29.5,0,0,0-3.776-2.418c-1.385-.569-3.247-.443-4.053.819a4.483,4.483,0,0,0-.512,1.479c-.723,3.294-.557,3.1-1.28,6.393Z" transform="translate(-109.02 -215.894)"/><path class="e" d="M645.854,323.466h-392.4a5.642,5.642,0,0,0-5.637,5.637V595a5.642,5.642,0,0,0,5.637,5.637h392.4a5.632,5.632,0,0,0,4.286-1.978,1.318,1.318,0,0,0,.123-.155,5.278,5.278,0,0,0,.808-1.364A5.494,5.494,0,0,0,651.5,595V429.478h-1.61V595a3.994,3.994,0,0,1-.666,2.211,4.172,4.172,0,0,1-1.526,1.371,4,4,0,0,1-1.842.446h-392.4A4.032,4.032,0,0,1,249.429,595V329.1a4.032,4.032,0,0,1,4.028-4.027h392.4a4.033,4.033,0,0,1,4.034,4.028v35.729h1.61V329.1A5.643,5.643,0,0,0,645.854,323.466Z" transform="translate(-156.273 -174.472)"/><rect class="e" width="402.066" height="1.611" transform="translate(92.349 171.59)"/><circle class="b" cx="4.834" cy="4.834" r="4.834" transform="translate(101.212 156.249)"/><circle class="b" cx="4.834" cy="4.834" r="4.834" transform="translate(115.111 156.249)"/><circle class="b" cx="4.834" cy="4.834" r="4.834" transform="translate(129.011 156.249)"/><path class="b" d="M956.068,456.051H842.292a5.172,5.172,0,1,1,0-10.343H956.068a5.172,5.172,0,0,1,0,10.343Z" transform="translate(-364.618 -217.69)"/><path class="b" d="M881.723,422.051H842.29a5.172,5.172,0,0,1,0-10.343h39.434a5.172,5.172,0,0,1,0,10.343Z" transform="translate(-364.618 -205.669)"/><path class="f" d="M21.979,0A21.979,21.979,0,1,1,0,21.979,21.979,21.979,0,0,1,21.979,0Z" transform="translate(404.16 200.704)"/><path class="e" d="M920.676,385.456H715.75a11.005,11.005,0,0,0-10.99,10.99V441.7a11.005,11.005,0,0,0,10.99,10.99H920.676a11.005,11.005,0,0,0,10.99-10.99V396.446A11.005,11.005,0,0,0,920.676,385.456Zm9.7,56.242a9.709,9.709,0,0,1-9.7,9.7H715.75a9.709,9.709,0,0,1-9.7-9.7V396.446a9.709,9.709,0,0,1,9.7-9.7H920.676a9.709,9.709,0,0,1,9.7,9.7Z" transform="translate(-317.823 -196.388)"/><circle class="g" cx="14.868" cy="14.868" r="14.868" transform="translate(597.681 177.432)"/><path class="h" d="M1052.947,393.788a.645.645,0,0,1-.189-.457V376.875a.646.646,0,0,1,1.293,0v16.456a.646.646,0,0,1-1.1.457Z" transform="translate(-440.856 -193.125)"/><path class="h" d="M1040.226,390.06a.647.647,0,0,1,.457-1.1h16.456a.646.646,0,0,1,0,1.293h-16.456A.644.644,0,0,1,1040.226,390.06Z" transform="translate(-436.359 -197.625)"/><path class="e" d="M1045.052,696.163h-31.036c0,.892-31.986,1.616-31.986,1.616a8.312,8.312,0,0,0-1.364,1.293,8.022,8.022,0,0,0-1.875,5.172v1.293a8.084,8.084,0,0,0,8.081,8.081h58.181a8.087,8.087,0,0,0,8.081-8.081v-1.293A8.092,8.092,0,0,0,1045.052,696.163Z" transform="translate(-414.705 -306.237)"/><rect class="e" width="8.404" height="54.302" transform="translate(597.376 407.059)"/><path class="e" d="M1049.178,801.774c0,.908-12.735.351-28.444.351s-28.444.557-28.444-.351,12.735-8.109,28.444-8.109S1049.178,800.867,1049.178,801.774Z" transform="translate(-419.478 -340.709)"/><circle class="c" cx="18.101" cy="18.101" r="18.101" transform="translate(586.174 280.954)"/><path class="i" d="M858.676,685.456h-7.925l-3.771-30.57h11.7Z" transform="translate(-299.447 -231.533)"/><path class="c" d="M838.793,698.671h15.285v9.624H829.169a9.624,9.624,0,0,1,9.624-9.624Z" transform="translate(-293.15 -247.013)"/><path class="i" d="M841.8,677.465l-7.562-2.373,5.554-30.3,11.16,3.5Z" transform="translate(-294.942 -227.965)"/><path class="c" d="M9.624,0H24.908V9.624H0A9.624,9.624,0,0,1,9.624,0Z" transform="translate(525.388 440.39) rotate(17.423)"/><path class="c" d="M1011.04,681.82a24.466,24.466,0,0,0-.983-4.538l-1.48-1.862-3.853-4.835-.168.006c-.285.013-1.468.078-3.3.22h-.02c-1.131.091-2.515.207-4.085.356-.414.045-.847.084-1.293.129v6.749h8.081a1.619,1.619,0,0,1,1.6,1.409c.006.071.013.136.013.207a1.617,1.617,0,0,1-1.616,1.616H957.009a18.375,18.375,0,0,0-1.72,1.293,9.621,9.621,0,0,0-3.394,5.081c-2.741,12.05-7.738,34.521-9.212,41.121a2.934,2.934,0,0,0,.873,2.767,2.869,2.869,0,0,0,.95.588l5.831,2.185a3.1,3.1,0,0,0,.743.174c.032,0,.058.007.091.007a1.718,1.718,0,0,0,.181.007,2.93,2.93,0,0,0,2.722-1.875l4.6-12.076,7.092-18.618,2.806-7.363c3.252.763,30.532,6.8,39.667-2.928a10.389,10.389,0,0,0,2.094-3.3,13.447,13.447,0,0,0,.7-6.516Z" transform="translate(-401.917 -297.194)"/><path class="c" d="M1023.55,686.054c-.142-.575-.3-1.17-.491-1.771l-5.333-6.7-.168.006c-.336.019-1.933.1-4.383.3-2.78.233-6.665.608-11.029,1.2-.129.013-.265.032-.394.052-.427.058-.86.116-1.293.181v1.2h8.081a1.619,1.619,0,0,1,1.6,1.409c.006.071.013.136.013.207a1.616,1.616,0,0,1-1.616,1.616H979.979c-1.247.407-2.45.834-3.6,1.293-6.038,2.392-10.557,5.527-11.481,9.606-.31,1.37-.653,2.877-1.015,4.48-1.345,5.96-2.98,13.259-4.46,19.891v.006c-.3,1.371-.608,2.7-.9,4-1.235,5.56-2.282,10.272-2.838,12.748-.013.071-.026.136-.039.207v.013a3.017,3.017,0,0,0,.181,1.48l.006.006v.006a2.864,2.864,0,0,0,.841,1.157,2.97,2.97,0,0,0,.834.485l5.831,2.185a2.962,2.962,0,0,0,1.015.187,2.867,2.867,0,0,0,1.39-.355,2.91,2.91,0,0,0,1.332-1.519l12.554-32.943,1.946-5.113c3.251.763,30.532,6.794,39.666-2.928a10.919,10.919,0,0,0,2.9-7.156A19.185,19.185,0,0,0,1023.55,686.054Z" transform="translate(-406.514 -299.669)"/><path class="f" d="M1041.917,599.578c-.1-.123-.213-.246-.33-.362a15.82,15.82,0,0,0-13.556-4.777,51.309,51.309,0,0,0-6.406,1.261,16.149,16.149,0,0,0-7.227,4.053,15.782,15.782,0,0,0-4.79,11.765c.026.886.032,1.791.02,2.709,0,.427-.007.86-.013,1.293h6.374a3.436,3.436,0,0,1,.821.1,3.563,3.563,0,0,1,2.734,3.459v30.073c.433.123.866.246,1.293.375.136.045.265.084.394.123.149.045.3.091.44.136q1.968.611,3.846,1.293h2.107a1.619,1.619,0,0,1,1.6,1.409c.44.175.866.349,1.286.524,1.493.621,2.909,1.241,4.209,1.842,1.752.8,3.31,1.564,4.616,2.23a2.965,2.965,0,0,0,1.325.323,2.847,2.847,0,0,0,1.681-.556,3.529,3.529,0,0,0,.291-.239,2.911,2.911,0,0,0,.886-2.573,82.806,82.806,0,0,1-.582-15.321c.181-4.3.569-8.708,1.073-12.968.271-2.308.575-4.57.892-6.749.3-2.082.627-4.079.944-5.967a15.908,15.908,0,0,0-3.93-13.453Z" transform="translate(-425.598 -270.224)"/><path class="f" d="M1010.521,602.95a7.683,7.683,0,0,0-1.021-.355,7.434,7.434,0,0,0-8.753,4.221l-4.441,10.253-.556,1.293h15.34a3.438,3.438,0,0,1,.821.1l.517-1.2,1.965-4.538A7.441,7.441,0,0,0,1010.521,602.95Z" transform="translate(-420.701 -273.066)"/><circle class="i" cx="15.878" cy="15.878" r="15.878" transform="translate(587.735 287.413)"/><path class="c" d="M1014.93,544.082a57.27,57.27,0,0,0,24.776,8.164l-2.612-3.129a19.19,19.19,0,0,0,5.929,1.177,6.492,6.492,0,0,0,5.292-2.477,6.039,6.039,0,0,0,.4-5.579,11.437,11.437,0,0,0-3.6-4.5,21.423,21.423,0,0,0-19.94-3.564,12.8,12.8,0,0,0-5.955,3.82c-1.505,1.857-4.4,3.511-3.632,5.774Z" transform="translate(-427.482 -248.593)"/><path class="c" d="M1012.546,522.878A48.8,48.8,0,0,0,994.793,511.4c-4.292-1.59-8.963-2.572-13.449-1.669s-8.73,4.007-9.982,8.409c-1.024,3.6.033,7.475,1.622,10.864s3.709,6.531,4.994,10.046a22.928,22.928,0,0,1-23.071,30.747c4.408.591,8.472,2.663,12.781,3.765s9.395,1.028,12.6-2.059c3.388-3.266,3.456-8.577,3.292-13.28q-.365-10.487-.73-20.974c-.124-3.565-.23-7.245,1.056-10.573s4.342-6.242,7.909-6.212c2.7.023,5.1,1.661,7.265,3.276s4.463,3.339,7.156,3.579,5.768-1.753,5.567-4.449Z" transform="translate(-406.261 -240.202)"/><path class="i" d="M1050.34,632.456l-9.063.246-.659,6.368-.149,1.474-14.2,6.374-1.293.582v11.332l1.293-.368,4.085-1.164h.019l18-5.126.207-.058a7.033,7.033,0,0,0,5.082-6.691l.045-7.518.039-5.54Z" transform="translate(-431.035 -283.682)"/><path class="f" d="M1060.645,609.208a7.435,7.435,0,1,0-14.843.911l.989,16.135a2.9,2.9,0,0,0,1.183,2.159,2.867,2.867,0,0,0,1.9.562l6.93-.427,2.1-.129a2.834,2.834,0,0,0,2-.976,2.023,2.023,0,0,0,.155-.194,2.889,2.889,0,0,0,.569-1.913Z" transform="translate(-438.392 -273.027)"/><path class="e" d="M991.045,660.68h-.834V660.6c-.427.058-.86.116-1.293.181v1.2h5.973Q993.01,661.294,991.045,660.68Zm0,0h-.834V660.6c-.427.058-.86.116-1.293.181v1.2h5.973Q993.01,661.294,991.045,660.68Zm5.954,0h-6.788V629.973a4.855,4.855,0,0,0-3.51-4.655,4.554,4.554,0,0,0-1.338-.194H927.828a4.854,4.854,0,0,0-4.848,4.848V661.65a4.85,4.85,0,0,0,4.848,4.848H997a2.912,2.912,0,0,0,2.889-2.592,2.541,2.541,0,0,0,.02-.317A2.913,2.913,0,0,0,997,660.68Zm1.616,2.909A1.617,1.617,0,0,1,997,665.205H927.828a3.558,3.558,0,0,1-3.555-3.556V629.973a3.558,3.558,0,0,1,3.556-3.555h57.534a3.431,3.431,0,0,1,.821.1,3.562,3.562,0,0,1,2.735,3.458v32H997a1.619,1.619,0,0,1,1.6,1.409C998.609,663.453,998.615,663.518,998.615,663.589Zm-7.57-2.909h-.834V660.6c-.427.058-.86.116-1.293.181v1.2h5.973Q993.01,661.294,991.045,660.68Z" transform="translate(-394.974 -281.122)"/><circle class="g" cx="3.879" cy="3.879" r="3.879" transform="translate(557.741 360.812)"/><path class="i" d="M422.2,161.457a5.629,5.629,0,0,0,.027.885l-20.3,17.037-6.054-2.192-4.5,8.7,13.235,6.3,22.193-24.9a5.609,5.609,0,1,0-4.6-5.83Z" transform="translate(-207.025 -115.321)"/><path class="b" d="M383.617,197.082l-19.6-7.076a7.214,7.214,0,1,1,4.9-13.571l19.6,7.076a2.4,2.4,0,0,1,1.445,3.078l-3.266,9.048a2.408,2.408,0,0,1-3.078,1.445Z" transform="translate(-195.668 -122.337)"/><path class="i" d="M268.529,208.432h6.551l3.117-25.27h-9.669Z" transform="translate(-94.937 -64.756)"/><path class="c" d="M0,0H20.59V7.955H7.955A7.955,7.955,0,0,1,0,0Z" transform="translate(192.777 149.759) rotate(179.997)"/><path class="i" d="M243.484,197.855l5.359,3.768,17.085-18.878-7.909-5.561Z" transform="translate(-86.083 -62.643)"/><path class="c" d="M0,0h20.59V7.955H7.955A7.955,7.955,0,0,1,0,0H0Z" transform="matrix(-0.818, -0.575, 0.575, -0.818, 168.951, 149.931)"/><path class="i" d="M384.761,244.747s16.349-1.929,13.415,8.68S362.543,273.2,362.543,273.2Z" transform="translate(-196.833 -146.592)"/><circle class="i" cx="13.125" cy="13.125" r="13.125" transform="translate(163.55 17.771)"/><path class="b" d="M311.281,243.754c-7.468-8.7-10.082-22.043,1.828-33.143a39.255,39.255,0,0,1,9.878-6.56l9.6-26.844a14.628,14.628,0,0,1,13.518-9.724,14,14,0,0,1,13.58,8.733,12.151,12.151,0,0,1,.377,8.605,138.23,138.23,0,0,1-11.2,25.626l.5,3.971,24.263,2.156-.226.368c-.118.192-11.993,18.284-27.183,30.293a24.964,24.964,0,0,1-15.634,5.807A25.907,25.907,0,0,1,311.281,243.754Z" transform="translate(-176.463 -119.32)"/><path class="c" d="M302.923,128c2.322-2.767,3.318-6.386,4.119-9.908,1.268-5.573,2.249-11.336,5.065-16.309s7.992-9.094,13.7-8.78c5.674.312,10.262,4.877,12.7,10.071a4.517,4.517,0,0,1,3.668.177c1.755.961,2.411,3.693.95,5.06a12.125,12.125,0,0,1,9.874-.246,11.935,11.935,0,0,1,7.23,10.129,6.507,6.507,0,0,1-1.73,4.882c-2.518,2.592-6.08,1.7-9.247,1.038-2.991-.624-6.635-.792-8.32,2.058a5.342,5.342,0,0,0-.52,3.9c.646,2.845,2.752,4.827,4.8,6.723l.334.621A14.673,14.673,0,0,1,338,109.127h0a2.6,2.6,0,0,1-2.336-3.9,12.37,12.37,0,0,0-6.314-1.575c-3.595.236-6.705,2.795-8.576,5.873s-2.718,6.652-3.576,10.15-1.787,7.064-3.787,10.06a16.009,16.009,0,0,1-25.65,1.316A12.776,12.776,0,0,0,302.923,128Z" transform="translate(-170.394 -92.986)"/><circle class="g" cx="19.078" cy="19.078" r="19.078" transform="translate(209.85 32.626)"/><path class="h" d="M459.3,177.243a.826.826,0,0,1-.243-.587V155.541a.829.829,0,1,1,1.659,0v21.115a.829.829,0,0,1-1.416.587Z" transform="translate(-230.954 -114.809)"/><path class="h" d="M442.963,172.46a.829.829,0,0,1,.587-1.416h21.115a.829.829,0,1,1,0,1.659H443.55a.826.826,0,0,1-.587-.243Z" transform="translate(-225.18 -120.583)"/><path class="i" d="M419.136,191.1a5.628,5.628,0,0,0-.352.813L393.167,198.7l-4.548-4.557-7.774,5.965,9.3,11.328,30.673-13.11a5.609,5.609,0,1,0-1.685-7.232Z" transform="translate(-203.304 -126.63)"/><path class="b" d="M373.931,200.07l-14.737-14.737a7.214,7.214,0,1,1,10.2-10.2l14.737,14.737a2.4,2.4,0,0,1,0,3.4l-6.8,6.8a2.408,2.408,0,0,1-3.4,0Z" transform="translate(-194.902 -121.281)"/><g transform="translate(126.295 213.594)"><path class="b" d="M584.9,255.176H522.521a5.2,5.2,0,0,1,0-10.4H584.9a5.2,5.2,0,0,1,0,10.4Z" transform="translate(-517.323 -244.78)"/><path class="b" d="M670.291,289.176H522.521a5.2,5.2,0,0,1,0-10.4h147.77a5.2,5.2,0,0,1,0,10.4Z" transform="translate(-517.323 -253.533)"/><path class="g" d="M781.917,306.3A58.918,58.918,0,0,0,830.5,398.547V347.115Z" transform="translate(-567.894 -218.752)"/><path class="b" d="M836.129,266.78a58.849,58.849,0,0,0-48.586,25.588l48.586,40.812Z" transform="translate(-573.52 -204.817)"/><path class="e" d="M862.234,384.907h-.647V265.78h.647a59.564,59.564,0,0,1,0,119.127Zm.647-117.829V383.609a58.267,58.267,0,1,0,0-116.534Z" transform="translate(-599.625 -204.465)"/><path class="b" d="M576.788,472.349H564.165a3.345,3.345,0,0,1-3.342-3.342V432.622a3.345,3.345,0,0,1,3.342-3.342h12.624a3.345,3.345,0,0,1,3.342,3.341v36.386A3.345,3.345,0,0,1,576.788,472.349Z" transform="translate(-528.522 -292.277)"/><path class="j" d="M626.788,466.428H614.164a3.345,3.345,0,0,1-3.341-3.342V409.622a3.345,3.345,0,0,1,3.341-3.342h12.624a3.345,3.345,0,0,1,3.341,3.342v53.464A3.345,3.345,0,0,1,626.788,466.428Z" transform="translate(-541.393 -286.356)"/><path class="g" d="M676.788,461.279H664.165a3.345,3.345,0,0,1-3.342-3.342V389.622a3.345,3.345,0,0,1,3.342-3.342h12.624a3.345,3.345,0,0,1,3.342,3.341v68.316a3.345,3.345,0,0,1-3.342,3.342Z" transform="translate(-554.265 -281.207)"/><path class="e" d="M576.659,456.887H564.036a3.717,3.717,0,0,1-3.713-3.713V371.493a3.717,3.717,0,0,1,3.713-3.713h12.624a3.717,3.717,0,0,1,3.713,3.713v81.682A3.717,3.717,0,0,1,576.659,456.887Zm-12.624-87.622a2.23,2.23,0,0,0-2.228,2.228v81.682a2.23,2.23,0,0,0,2.228,2.228h12.624a2.23,2.23,0,0,0,2.228-2.228V371.493a2.23,2.23,0,0,0-2.228-2.228Z" transform="translate(-528.393 -276.445)"/><path class="e" d="M626.659,456.887H614.036a3.717,3.717,0,0,1-3.713-3.713V371.493a3.717,3.717,0,0,1,3.713-3.713h12.624a3.717,3.717,0,0,1,3.713,3.713v81.682a3.717,3.717,0,0,1-3.713,3.713Zm-12.624-87.622a2.23,2.23,0,0,0-2.228,2.228v81.682a2.23,2.23,0,0,0,2.228,2.228h12.624a2.23,2.23,0,0,0,2.228-2.228V371.493a2.23,2.23,0,0,0-2.228-2.228Z" transform="translate(-541.265 -276.445)"/><path class="e" d="M676.659,456.887H664.036a3.717,3.717,0,0,1-3.713-3.713V371.493a3.717,3.717,0,0,1,3.713-3.713h12.624a3.717,3.717,0,0,1,3.713,3.713v81.682A3.717,3.717,0,0,1,676.659,456.887Zm-12.624-87.622a2.23,2.23,0,0,0-2.228,2.228v81.682a2.23,2.23,0,0,0,2.228,2.228h12.624a2.23,2.23,0,0,0,2.228-2.228V371.493a2.23,2.23,0,0,0-2.228-2.228Z" transform="translate(-554.137 -276.445)"/></g></g></svg>