<?xml version="1.0" encoding="UTF-8" standalone="no"?>
<!-- Created with Inkscape (http://www.inkscape.org/) -->

<svg
   width="13.748212mm"
   height="15.875mm"
   viewBox="0 0 13.748212 15.875"
   version="1.1"
   id="svg5"
   inkscape:version="1.1 (c68e22c387, 2021-05-23)"
   sodipodi:docname="logoODS_ab.svg"
   xmlns:inkscape="http://www.inkscape.org/namespaces/inkscape"
   xmlns:sodipodi="http://sodipodi.sourceforge.net/DTD/sodipodi-0.dtd"
   xmlns="http://www.w3.org/2000/svg"
   xmlns:svg="http://www.w3.org/2000/svg">
  <sodipodi:namedview
     id="namedview7"
     pagecolor="#ffffff"
     bordercolor="#666666"
     borderopacity="1.0"
     inkscape:pageshadow="2"
     inkscape:pageopacity="0.0"
     inkscape:pagecheckerboard="0"
     inkscape:document-units="mm"
     showgrid="false"
     inkscape:zoom="1.4142136"
     inkscape:cx="-217.08178"
     inkscape:cy="109.248"
     inkscape:window-width="2560"
     inkscape:window-height="1017"
     inkscape:window-x="1912"
     inkscape:window-y="-8"
     inkscape:window-maximized="1"
     inkscape:current-layer="layer1"
     fit-margin-top="0"
     fit-margin-left="0"
     fit-margin-right="0"
     fit-margin-bottom="0" />
  <defs
     id="defs2" />
  <g
     inkscape:label="Layer 1"
     inkscape:groupmode="layer"
     id="layer1"
     transform="translate(-152.16116,-133.0932)">
    <rect
       inkscape:export-ydpi="90"
       inkscape:export-xdpi="90"
       y="133.0932"
       x="152.16116"
       height="15.875"
       width="13.748206"
       id="rect25155"
       style="fill:none;fill-opacity:1;stroke:none;stroke-width:0.151914;stroke-miterlimit:4;stroke-dasharray:none;stroke-opacity:1" />
    <path
       inkscape:export-ydpi="90"
       inkscape:export-xdpi="90"
       transform="matrix(0,0.05129929,-0.05129929,0,181.79692,162.31991)"
       inkscape:randomized="0"
       inkscape:rounded="0"
       inkscape:flatsided="true"
       sodipodi:arg2="1.5728413"
       sodipodi:arg1="1.0492425"
       sodipodi:r2="133.84225"
       sodipodi:r1="154.54773"
       sodipodi:cy="443.70316"
       sodipodi:cx="-415"
       sodipodi:sides="6"
       id="path25157"
       style="opacity:1;fill:#ffffff;fill-opacity:1;stroke:none;stroke-width:2;stroke-miterlimit:4;stroke-dasharray:none;stroke-opacity:1"
       sodipodi:type="star"
       d="m -338,577.70316 -154.5474,-0.31605 -77.00001,-134 L -492,309.70315 l 154.5474,0.31605 77.00001,134 z" />
    <path
       style="fill:#4d4d4d;stroke-width:0.0759568"
       inkscape:connector-curvature="0"
       d="m 159.03526,133.74641 6.32418,3.64261 v 7.28336 l -6.32418,3.64262 -6.32417,-3.64262 v -7.28336 z m 0,-0.63473 -6.8741,3.95948 v 7.91908 l 6.8741,3.95949 6.87411,-3.95949 v -7.91908 z"
       id="path25159" />
    <g
       id="g25197"
       transform="matrix(0.07482476,0,0,0.07482476,155.29399,135.04447)"
       style="fill:#4d4d4d">
      <polygon
         points="9.007,47.49 2.804,47.49 2.804,50.671 5.226,50.671 5.226,62.299 9.007,62.299 "
         id="polygon25161"
         style="fill:#4d4d4d" />
      <polygon
         points="30.128,50.671 30.128,62.299 33.91,62.299 33.91,47.49 27.707,47.49 27.707,50.671 "
         id="polygon25163"
         style="fill:#4d4d4d" />
      <polygon
         points="18.592,68.307 18.592,79.933 22.374,79.933 22.374,65.123 16.171,65.123 16.171,68.307 "
         id="polygon25165"
         style="fill:#4d4d4d" />
      <polygon
         points="18.592,85.554 18.592,97.18 22.374,97.18 22.374,82.37 16.171,82.37 16.171,85.554 "
         id="polygon25167"
         style="fill:#4d4d4d" />
      <polygon
         points="30.128,68.307 30.128,79.933 33.91,79.933 33.91,65.123 27.707,65.123 27.707,68.307 "
         id="polygon25169"
         style="fill:#4d4d4d" />
      <path
         d="m 21.594,47.688 c -0.701,-0.3 -1.5,-0.48 -2.262,-0.48 -0.76,0 -1.52,0.161 -2.241,0.442 -2.241,0.899 -3.342,2.799 -3.342,5.182 v 4.121 c 0,2.363 1.121,4.244 3.322,5.164 0.72,0.302 1.48,0.46 2.261,0.46 0.841,0 1.681,-0.182 2.441,-0.539 2.082,-0.96 3.022,-2.863 3.022,-5.085 v -4.121 c 0,-2.321 -1.04,-4.202 -3.201,-5.144 z m -0.581,9.368 c 0,1.159 -0.38,2.198 -1.741,2.198 -1.301,0 -1.741,-1.06 -1.741,-2.198 v -4.323 c 0,-1.122 0.44,-2.202 1.741,-2.202 1.361,0 1.741,1.04 1.741,2.202 z"
         id="path25171"
         inkscape:connector-curvature="0"
         style="fill:#4d4d4d" />
      <polygon
         points="92.277,68.307 92.277,79.933 96.059,79.933 96.059,65.123 89.854,65.123 89.854,68.307 "
         id="polygon25173"
         style="fill:#4d4d4d" />
      <polygon
         points="92.277,85.554 92.277,97.18 96.059,97.18 96.059,82.37 89.854,82.37 89.854,85.554 "
         id="polygon25175"
         style="fill:#4d4d4d" />
      <path
         d="m 95.278,47.688 c -0.7,-0.3 -1.501,-0.48 -2.261,-0.48 -0.76,0 -1.521,0.161 -2.242,0.442 -2.241,0.899 -3.341,2.799 -3.341,5.182 v 4.121 c 0,2.363 1.121,4.244 3.322,5.164 0.72,0.302 1.479,0.46 2.261,0.46 0.84,0 1.68,-0.182 2.441,-0.539 2.082,-0.96 3.021,-2.863 3.021,-5.085 v -4.121 c 0,-2.321 -1.041,-4.202 -3.201,-5.144 z m -0.581,9.368 c 0,1.159 -0.38,2.198 -1.741,2.198 -1.301,0 -1.739,-1.06 -1.739,-2.198 v -4.323 c 0,-1.122 0.438,-2.202 1.739,-2.202 1.361,0 1.741,1.04 1.741,2.202 z"
         id="path25177"
         inkscape:connector-curvature="0"
         style="fill:#4d4d4d" />
      <polygon
         points="73.262,65.123 67.06,65.123 67.06,68.307 69.48,68.307 69.48,79.933 73.262,79.933 "
         id="polygon25179"
         style="fill:#4d4d4d" />
      <polygon
         points="81.016,68.307 81.016,79.933 84.799,79.933 84.799,65.123 78.595,65.123 78.595,68.307 "
         id="polygon25181"
         style="fill:#4d4d4d" />
      <path
         d="m 72.482,82.571 c -0.701,-0.298 -1.5,-0.479 -2.261,-0.479 -0.762,0 -1.522,0.159 -2.241,0.44 -2.241,0.9 -3.344,2.801 -3.344,5.181 v 4.124 c 0,2.36 1.122,4.244 3.323,5.164 0.719,0.299 1.48,0.46 2.262,0.46 0.841,0 1.68,-0.182 2.439,-0.542 2.082,-0.96 3.022,-2.86 3.022,-5.082 v -4.124 c 0.002,-2.32 -1.038,-4.198 -3.2,-5.142 z m -0.581,9.366 c 0,1.162 -0.379,2.201 -1.741,2.201 -1.3,0 -1.739,-1.06 -1.739,-2.201 v -4.32 c 0,-1.122 0.439,-2.204 1.739,-2.204 1.362,0 1.741,1.043 1.741,2.204 z"
         id="path25183"
         inkscape:connector-curvature="0"
         style="fill:#4d4d4d" />
      <path
         d="M 8.228,65.324 C 7.527,65.023 6.727,64.845 5.965,64.845 c -0.76,0 -1.52,0.158 -2.239,0.439 -2.242,0.9 -3.343,2.801 -3.343,5.185 v 4.121 c 0,2.36 1.121,4.241 3.322,5.164 0.721,0.298 1.481,0.457 2.26,0.457 0.842,0 1.682,-0.179 2.441,-0.539 2.082,-0.961 3.022,-2.86 3.022,-5.082 v -4.121 c 10e-4,-2.324 -1.04,-4.204 -3.2,-5.145 z m -0.582,9.365 c 0,1.162 -0.38,2.201 -1.741,2.201 -1.3,0 -1.74,-1.062 -1.74,-2.201 v -4.323 c 0,-1.119 0.44,-2.198 1.74,-2.198 1.361,0 1.741,1.039 1.741,2.198 z"
         id="path25185"
         inkscape:connector-curvature="0"
         style="fill:#4d4d4d" />
      <polygon
         points="46.418,47.49 40.215,47.49 40.215,50.671 42.637,50.671 42.637,62.299 46.418,62.299 "
         id="polygon25187"
         style="fill:#4d4d4d" />
      <polygon
         points="56.004,68.307 56.004,79.933 59.785,79.933 59.785,65.123 53.582,65.123 53.582,68.307 "
         id="polygon25189"
         style="fill:#4d4d4d" />
      <polygon
         points="56.004,85.554 56.004,97.18 59.785,97.18 59.785,82.37 53.582,82.37 53.582,85.554 "
         id="polygon25191"
         style="fill:#4d4d4d" />
      <path
         d="m 45.639,65.324 c -0.702,-0.301 -1.501,-0.479 -2.263,-0.479 -0.76,0 -1.52,0.158 -2.24,0.439 -2.242,0.9 -3.342,2.801 -3.342,5.185 v 4.121 c 0,2.36 1.121,4.241 3.322,5.164 0.721,0.298 1.481,0.457 2.26,0.457 0.842,0 1.682,-0.179 2.441,-0.539 2.082,-0.961 3.022,-2.86 3.022,-5.082 v -4.121 c 0.001,-2.324 -1.04,-4.204 -3.2,-5.145 z m -0.581,9.365 c 0,1.162 -0.38,2.201 -1.741,2.201 -1.3,0 -1.74,-1.062 -1.74,-2.201 v -4.323 c 0,-1.119 0.44,-2.198 1.74,-2.198 1.361,0 1.741,1.039 1.741,2.198 z"
         id="path25193"
         inkscape:connector-curvature="0"
         style="fill:#4d4d4d" />
      <path
         d="m 81.751,44.757 1.139,0.001 11.635,0.021 0.425,-0.427 c 2.887,-3.004 4.668,-7.079 4.668,-11.563 0,-8.235 -5.993,-15.094 -13.842,-16.455 C 85.759,16.331 85.743,16.328 85.725,16.327 84.337,8.503 77.496,2.539 69.281,2.539 c -7.739,0 -14.262,5.292 -16.151,12.447 -2.866,-2.308 -6.503,-3.694 -10.459,-3.694 -8.319,0 -15.236,6.114 -16.499,14.085 -2.616,-1.703 -5.735,-2.697 -9.083,-2.697 -9.211,0 -16.706,7.495 -16.706,16.705 0,1.814 0.294,3.562 0.832,5.197 L 1.216,44.6 h 0.006 l 5.785,0.01 20.144,0.04 5.785,0.011 7.922,0.017 0.911,0.001 c 0.298,0.016 0.6,0.024 0.902,0.024 v -0.024 l 1.811,0.004 c 0.014,-0.003 0.029,-0.004 0.044,-0.006 l 6.111,0.016 c 0.559,1.433 1.316,2.764 2.228,3.975 -1.134,1.021 -1.704,2.466 -1.704,4.164 v 4.121 c 0,2.363 1.121,4.244 3.322,5.164 0.72,0.302 1.479,0.46 2.261,0.46 0.841,0 1.682,-0.182 2.441,-0.539 2.081,-0.96 3.021,-2.863 3.021,-5.085 v -2.088 c 0.79,0.195 1.602,0.33 2.431,0.408 v 1.68 c 0,2.363 1.122,4.244 3.323,5.164 0.719,0.302 1.48,0.46 2.262,0.46 0.841,0 1.68,-0.182 2.439,-0.539 2.082,-0.96 3.022,-2.863 3.022,-5.085 v -4.558 c 0.747,-0.517 1.445,-1.097 2.098,-1.725 h 3.234 v 11.628 h 3.783 V 47.49 h -4.441 c 0.541,-0.864 1.016,-1.773 1.394,-2.733 z M 30.471,39.438 28.45,39.435 5.729,39.39 c 0,-10e-4 0,-0.004 0,-0.007 0,-6.265 5.097,-11.362 11.361,-11.362 4.293,0 8.036,2.396 9.967,5.916 -0.009,-0.025 -0.018,-0.051 -0.026,-0.078 0.786,2.09 1.981,3.982 3.487,5.58 h -0.047 z m 27.954,17.618 c 0,1.159 -0.381,2.198 -1.741,2.198 -1.301,0 -1.741,-1.06 -1.741,-2.198 v -4.323 c 0,-0.536 0.104,-1.059 0.352,-1.463 0.956,0.828 2.005,1.55 3.131,2.146 v 3.64 z m 13.476,0 c 0,1.159 -0.379,2.198 -1.741,2.198 -1.3,0 -1.739,-1.06 -1.739,-2.198 v -1.858 c 1.206,-0.16 2.37,-0.451 3.48,-0.855 z m -5.693,-7.051 c -5.985,0 -10.896,-4.647 -11.328,-10.521 0,0 0,0 0,-0.003 -0.003,-0.021 -0.006,-0.04 -0.006,-0.061 L 49.52,39.409 c 10e-4,0.02 0.003,0.042 0.005,0.064 L 42.084,39.456 C 36.091,39.144 31.31,34.06 31.31,27.992 c 0.001,-6.259 5.097,-11.354 11.363,-11.354 6.265,0 11.361,5.094 11.361,11.36 h 5.345 c 0,-0.312 -0.012,-0.621 -0.027,-0.927 -0.005,-0.088 -0.016,-0.178 -0.021,-0.264 -0.016,-0.223 -0.033,-0.446 -0.059,-0.667 -0.01,-0.083 -0.021,-0.163 -0.031,-0.244 -0.031,-0.243 -0.064,-0.483 -0.105,-0.721 -0.007,-0.042 -0.014,-0.083 -0.02,-0.124 -0.153,-0.833 -0.362,-1.647 -0.632,-2.436 l -0.559,-3.372 c 0,-6.265 5.095,-11.362 11.36,-11.362 5.282,0 9.73,3.623 11,8.514 0.015,-0.003 0.032,-0.005 0.05,-0.007 0.22,0.877 0.338,1.798 0.338,2.745 0,0.886 -0.105,1.751 -0.3,2.579 0.815,-0.185 1.668,-0.288 2.542,-0.288 0.997,0 1.966,0.13 2.887,0.374 4.871,1.281 8.473,5.721 8.473,10.987 0,2.534 -0.835,4.877 -2.244,6.77 L 77.519,39.537 c 0.004,0.011 0.012,0.022 0.015,0.033 -0.092,1.238 -0.378,2.34 -0.837,3.437 -1.714,4.103 -5.771,6.998 -10.489,6.998 z"
         id="path25195"
         inkscape:connector-curvature="0"
         style="fill:#4d4d4d" />
    </g>
    <g
       aria-label="opendata
sicilia"
       id="text25203"
       style="font-size:2.11667px;line-height:1;font-family:Montserrat;-inkscape-font-specification:Montserrat;letter-spacing:0px;word-spacing:0px;fill:#006d77;stroke-width:0.264583">
      <path
         d="m 155.41999,144.08048 q -0.15452,0.1651 -0.40217,0.1651 -0.24765,0 -0.40216,-0.1651 -0.15664,-0.16299 -0.15664,-0.41275 0,-0.24765 0.15664,-0.41487 0.15663,-0.16298 0.40216,-0.16298 0.24554,0 0.40217,0.16298 0.15664,0.16722 0.15664,0.41487 0,0.24976 -0.15664,0.41275 z m -0.6731,-0.41275 q 0,0.15875 0.0741,0.25188 0.0741,0.0931 0.19685,0.0931 0.12489,0 0.19897,-0.0931 0.072,-0.091 0.072,-0.25188 0,-0.16087 -0.072,-0.25189 -0.0741,-0.0931 -0.19897,-0.0931 -0.12276,0 -0.19685,0.0931 -0.0741,0.0931 -0.0741,0.25189 z"
         style="font-weight:bold;font-family:'Helvetica Now Text';-inkscape-font-specification:'Helvetica Now Text Bold';text-align:center;text-anchor:middle"
         id="path25205" />
      <path
         d="m 156.38519,143.08988 q 0.19262,0 0.31962,0.15451 0.127,0.15664 0.127,0.41487 0,0.26035 -0.13123,0.42333 -0.13124,0.16299 -0.33867,0.16299 -0.18627,0 -0.29422,-0.13759 v 0.53341 h -0.29845 v -1.52401 h 0.26458 l 0.0106,0.14182 q 0.11218,-0.16933 0.34078,-0.16933 z m -0.0868,0.89323 q 0.11006,0 0.1778,-0.0889 0.0677,-0.0889 0.0677,-0.23495 0,-0.14605 -0.0677,-0.23283 -0.0677,-0.0889 -0.1778,-0.0889 -0.11007,0 -0.1778,0.0889 -0.0677,0.0868 -0.0677,0.23283 0,0.14605 0.0677,0.23495 0.0699,0.0889 0.1778,0.0889 z"
         style="font-weight:bold;font-family:'Helvetica Now Text';-inkscape-font-specification:'Helvetica Now Text Bold';text-align:center;text-anchor:middle"
         id="path25207" />
      <path
         d="m 158.06582,143.70159 v 0.0508 h -0.79163 q 0.008,0.12277 0.0762,0.19262 0.0677,0.0699 0.17992,0.0699 0.15875,0 0.21166,-0.14182 l 0.29634,0.0212 q -0.055,0.17357 -0.18415,0.26458 -0.12912,0.0889 -0.3175,0.0889 -0.26459,0 -0.41699,-0.1651 -0.1524,-0.1651 -0.1524,-0.42333 0,-0.24765 0.14605,-0.40852 0.14605,-0.16086 0.39159,-0.16086 0.24765,0 0.40428,0.1651 0.15663,0.16721 0.15663,0.44661 z m -0.30903,-0.1524 q -0.0127,-0.1143 -0.0762,-0.1778 -0.0635,-0.0635 -0.1651,-0.0635 -0.1016,0 -0.16722,0.0635 -0.0656,0.0677 -0.0762,0.1778 z"
         style="font-weight:bold;font-family:'Helvetica Now Text';-inkscape-font-specification:'Helvetica Now Text Bold';text-align:center;text-anchor:middle"
         id="path25209" />
      <path
         d="m 158.87015,143.08988 q 0.16934,0 0.26247,0.10371 0.0952,0.10372 0.0952,0.28364 v 0.73236 h -0.29845 v -0.66463 q 0,-0.0889 -0.0423,-0.13758 -0.0402,-0.0487 -0.11642,-0.0487 -0.0952,0 -0.15452,0.0741 -0.0593,0.072 -0.0593,0.19261 v 0.5842 h -0.29845 v -1.0922 h 0.2921 l 0.004,0.14817 q 0.10583,-0.17568 0.31538,-0.17568 z"
         style="font-weight:bold;font-family:'Helvetica Now Text';-inkscape-font-specification:'Helvetica Now Text Bold';text-align:center;text-anchor:middle"
         id="path25211" />
      <path
         d="m 160.18884,143.22746 v -0.52493 h 0.29845 v 1.50706 h -0.26458 l -0.0106,-0.13546 q -0.11218,0.17145 -0.3175,0.17145 -0.20743,0 -0.33867,-0.16299 -0.13123,-0.16298 -0.13123,-0.42333 0,-0.25823 0.127,-0.41487 0.127,-0.15451 0.31962,-0.15451 0.20531,0 0.3175,0.13758 z m -0.23072,0.75565 q 0.10795,0 0.17568,-0.0889 0.0699,-0.0889 0.0699,-0.23495 0,-0.14605 -0.0677,-0.23283 -0.0677,-0.0889 -0.1778,-0.0889 -0.11007,0 -0.1778,0.0889 -0.0677,0.0868 -0.0677,0.23283 0,0.14605 0.0677,0.23495 0.0677,0.0889 0.1778,0.0889 z"
         style="font-weight:bold;font-family:'Helvetica Now Text';-inkscape-font-specification:'Helvetica Now Text Bold';text-align:center;text-anchor:middle"
         id="path25213" />
      <path
         d="m 161.70861,144.20959 h -0.30269 q -0.0233,-0.10583 -0.0233,-0.11006 -0.11642,0.14181 -0.33655,0.14181 -0.17145,0 -0.27517,-0.091 -0.10372,-0.091 -0.10372,-0.2413 0,-0.26459 0.33232,-0.3302 l 0.381,-0.0762 v -0.0804 q 0,-0.11853 -0.18415,-0.11853 -0.091,0 -0.13758,0.0339 -0.0466,0.0339 -0.0571,0.11006 l -0.27305,-0.004 q 0.0275,-0.35137 0.46566,-0.35137 0.47202,0 0.47202,0.4064 v 0.4826 q 0,0.15452 0.0423,0.2286 z m -0.57786,-0.18838 q 0.11219,0 0.17992,-0.0656 0.0699,-0.0677 0.0699,-0.18203 v -0.0804 l -0.2794,0.0593 q -0.14182,0.0275 -0.14182,0.13759 0,0.0593 0.0444,0.0952 0.0466,0.036 0.127,0.036 z"
         style="font-weight:bold;font-family:'Helvetica Now Text';-inkscape-font-specification:'Helvetica Now Text Bold';text-align:center;text-anchor:middle"
         id="path25215" />
      <path
         d="m 162.47484,143.33753 -0.2032,-0.006 v 0.53551 q 0,0.055 0.0233,0.0804 0.0254,0.0233 0.0804,0.0233 h 0.0995 v 0.23918 h -0.19473 q -0.16511,0 -0.23707,-0.0699 -0.0699,-0.072 -0.0699,-0.23706 v -0.5715 l -0.14817,0.006 v -0.22014 l 0.14817,0.004 v -0.34079 h 0.29845 v 0.3429 l 0.2032,-0.006 z"
         style="font-weight:bold;font-family:'Helvetica Now Text';-inkscape-font-specification:'Helvetica Now Text Bold';text-align:center;text-anchor:middle"
         id="path25217" />
      <path
         d="m 163.61149,144.20959 h -0.30269 q -0.0233,-0.10583 -0.0233,-0.11006 -0.11642,0.14181 -0.33655,0.14181 -0.17145,0 -0.27517,-0.091 -0.10371,-0.091 -0.10371,-0.2413 0,-0.26459 0.33231,-0.3302 l 0.381,-0.0762 v -0.0804 q 0,-0.11853 -0.18415,-0.11853 -0.091,0 -0.13758,0.0339 -0.0466,0.0339 -0.0572,0.11006 l -0.27305,-0.004 q 0.0275,-0.35137 0.46567,-0.35137 0.47201,0 0.47201,0.4064 v 0.4826 q 0,0.15452 0.0423,0.2286 z m -0.57785,-0.18838 q 0.11218,0 0.17991,-0.0656 0.0699,-0.0677 0.0699,-0.18203 v -0.0804 l -0.2794,0.0593 q -0.14181,0.0275 -0.14181,0.13759 0,0.0593 0.0445,0.0952 0.0466,0.036 0.127,0.036 z"
         style="font-weight:bold;font-family:'Helvetica Now Text';-inkscape-font-specification:'Helvetica Now Text Bold';text-align:center;text-anchor:middle"
         id="path25219" />
      <path
         d="m 157.13449,146.44037 q -0.12912,0.0974 -0.35348,0.0974 -0.22437,0 -0.34714,-0.0953 -0.12488,-0.0952 -0.14816,-0.27093 l 0.27305,-0.0106 q 0.0296,0.16933 0.23283,0.16933 0.091,0 0.14393,-0.0317 0.0529,-0.0318 0.0529,-0.0889 0,-0.0804 -0.14393,-0.11007 l -0.2159,-0.0423 q -0.3175,-0.0635 -0.3175,-0.31962 0,-0.1651 0.12065,-0.26246 0.12065,-0.0974 0.32385,-0.0974 0.19685,0 0.32385,0.0952 0.127,0.0931 0.14816,0.254 l -0.26881,0.0106 q -0.0106,-0.072 -0.0677,-0.11218 -0.055,-0.0402 -0.1397,-0.0402 -0.0741,0 -0.11853,0.0318 -0.0444,0.0317 -0.0444,0.0847 0,0.0825 0.12277,0.11007 l 0.23495,0.0487 q 0.16298,0.0339 0.2413,0.11007 0.0783,0.0762 0.0783,0.2032 0,0.17145 -0.13123,0.2667 z"
         style="font-weight:bold;font-family:'Helvetica Now Text';-inkscape-font-specification:'Helvetica Now Text Bold';text-align:center;text-anchor:middle"
         id="path25221" />
      <path
         d="m 157.76526,145.26138 h -0.29845 v -0.27093 h 0.29845 z m 0,1.23614 h -0.29845 v -1.0922 h 0.29845 z"
         style="font-weight:bold;font-family:'Helvetica Now Text';-inkscape-font-specification:'Helvetica Now Text Bold';text-align:center;text-anchor:middle"
         id="path25223" />
      <path
         d="m 158.48704,146.5335 q -0.23918,0 -0.38312,-0.15663 -0.14181,-0.15452 -0.14181,-0.42122 0,-0.2667 0.14181,-0.42122 0.14394,-0.15663 0.38312,-0.15663 0.20955,0 0.34078,0.10795 0.13124,0.10583 0.1651,0.30057 h -0.2921 q -0.0487,-0.17569 -0.20955,-0.17569 -0.1143,0 -0.1778,0.091 -0.0635,0.0889 -0.0635,0.254 0,0.1651 0.0635,0.25612 0.0635,0.0889 0.1778,0.0889 0.15875,0 0.20955,-0.17992 h 0.2921 q -0.0339,0.19473 -0.16721,0.3048 -0.13335,0.10795 -0.33867,0.10795 z"
         style="font-weight:bold;font-family:'Helvetica Now Text';-inkscape-font-specification:'Helvetica Now Text Bold';text-align:center;text-anchor:middle"
         id="path25225" />
      <path
         d="m 159.47764,145.26138 h -0.29845 v -0.27093 h 0.29845 z m 0,1.23614 h -0.29845 v -1.0922 h 0.29845 z"
         style="font-weight:bold;font-family:'Helvetica Now Text';-inkscape-font-specification:'Helvetica Now Text Bold';text-align:center;text-anchor:middle"
         id="path25227" />
      <path
         d="m 160.03009,146.49752 h -0.29845 v -1.50707 h 0.29845 z"
         style="font-weight:bold;font-family:'Helvetica Now Text';-inkscape-font-specification:'Helvetica Now Text Bold';text-align:center;text-anchor:middle"
         id="path25229" />
      <path
         d="m 160.58254,145.26138 h -0.29845 v -0.27093 h 0.29845 z m 0,1.23614 h -0.29845 v -1.0922 h 0.29845 z"
         style="font-weight:bold;font-family:'Helvetica Now Text';-inkscape-font-specification:'Helvetica Now Text Bold';text-align:center;text-anchor:middle"
         id="path25231" />
      <path
         d="m 161.80386,146.49752 h -0.30269 q -0.0233,-0.10584 -0.0233,-0.11007 -0.11642,0.14182 -0.33655,0.14182 -0.17145,0 -0.27517,-0.091 -0.10372,-0.091 -0.10372,-0.2413 0,-0.26458 0.33232,-0.3302 l 0.381,-0.0762 v -0.0804 q 0,-0.11854 -0.18415,-0.11854 -0.091,0 -0.13758,0.0339 -0.0466,0.0339 -0.0572,0.11007 l -0.27305,-0.004 q 0.0275,-0.35136 0.46567,-0.35136 0.47201,0 0.47201,0.4064 v 0.4826 q 0,0.15451 0.0423,0.2286 z m -0.57785,-0.18839 q 0.11218,0 0.17991,-0.0656 0.0699,-0.0677 0.0699,-0.18204 v -0.0804 l -0.2794,0.0593 q -0.14181,0.0275 -0.14181,0.13758 0,0.0593 0.0444,0.0952 0.0466,0.036 0.127,0.036 z"
         style="font-weight:bold;font-family:'Helvetica Now Text';-inkscape-font-specification:'Helvetica Now Text Bold';text-align:center;text-anchor:middle"
         id="path25233" />
    </g>
  </g>
</svg>
